font.ufo
<glyph name="exclam" format="1">
  <advance width="274"/>
  <unicode hex="0021"/>
  <outline>
    <contour>
      <point x="209" y="229" type="line"/>
      <point x="219" y="722" type="line"/>
      <point x="56" y="722" type="line"/>
      <point x="66" y="229" type="line"/>
    </contour>
    <contour>
      <point x="211" y="62" type="curve"/>
      <point x="211" y="110"/>
      <point x="179" y="134"/>
      <point x="136" y="134" type="curve"/>
      <point x="92" y="134"/>
      <point x="63" y="108"/>
      <point x="63" y="62" type="curve"/>
      <point x="211" y="62"/>
      <point x="63" y="62"/>
      <point x="211" y="62" type="curve"/>
      <point x="211" y="13"/>
      <point x="180" y="-9"/>
      <point x="136" y="-9" type="curve"/>
      <point x="91" y="-9"/>
      <point x="63" y="15"/>
      <point x="63" y="62" type="curve"/>
      <point x="211" y="62"/>
      <point x="63" y="62"/>
    </contour>
  </outline>
</glyph>
<glyph name="two" format="1">
  <advance width="541"/>
  <unicode hex="0032"/>
  <outline>
    <contour>
      <point x="487" y="110" type="curve"/>
      <point x="487" y="206"/>
      <point x="487" y="94"/>
      <point x="487" y="190" type="curve"/>
      <point x="375" y="190"/>
      <point x="487" y="190"/>
      <point x="375" y="190" type="curve"/>
      <point x="375" y="94"/>
      <point x="375" y="206"/>
      <point x="375" y="110" type="curve"/>
      <point x="487" y="110"/>
      <point x="375" y="110"/>
    </contour>
    <contour>
      <point x="46" y="0" type="curve"/>
      <point x="222" y="0"/>
      <point x="381" y="0"/>
      <point x="487" y="0" type="curve"/>
      <point x="487" y="110"/>
      <point x="487" y="0"/>
      <point x="487" y="110" type="curve"/>
      <point x="358" y="110"/>
      <point x="177" y="111"/>
      <point x="47" y="111" type="curve"/>
      <point x="46" y="0"/>
      <point x="47" y="110"/>
    </contour>
    <contour>
      <point x="142" y="518" type="curve"/>
      <point x="173" y="570"/>
      <point x="191" y="612"/>
      <point x="245" y="612" type="curve"/>
      <point x="298" y="612"/>
      <point x="315" y="565"/>
      <point x="315" y="502" type="curve"/>
      <point x="315" y="410"/>
      <point x="273" y="349"/>
      <point x="209" y="282" type="curve"/>
      <point x="155" y="223"/>
      <point x="105" y="171"/>
      <point x="47" y="111" type="curve"/>
      <point x="46" y="0"/>
      <point x="47" y="110"/>
      <point x="46" y="0" type="curve"/>
      <point x="176" y="54"/>
      <point x="236" y="133"/>
      <point x="298" y="201" type="curve"/>
      <point x="391" y="296"/>
      <point x="447" y="375"/>
      <point x="447" y="508" type="curve"/>
      <point x="447" y="643"/>
      <point x="379" y="727"/>
      <point x="251" y="727" type="curve"/>
      <point x="149" y="727"/>
      <point x="81" y="668"/>
      <point x="44" y="576" type="curve"/>
      <point x="142" y="518"/>
      <point x="44" y="576"/>
    </contour>
  </outline>
</glyph>
<glyph name="colon" format="1">
  <advance width="273"/>
  <unicode hex="003A"/>
  <outline>
    <contour>
      <point x="210" y="361" type="curve"/>
      <point x="210" y="409"/>
      <point x="179" y="433"/>
      <point x="135" y="433" type="curve"/>
      <point x="91" y="433"/>
      <point x="62" y="407"/>
      <point x="62" y="361" type="curve"/>
      <point x="210" y="361"/>
      <point x="62" y="361"/>
      <point x="210" y="361" type="curve"/>
      <point x="210" y="312"/>
      <point x="180" y="290"/>
      <point x="135" y="290" type="curve"/>
      <point x="91" y="290"/>
      <point x="62" y="314"/>
      <point x="62" y="361" type="curve"/>
      <point x="210" y="361"/>
      <point x="62" y="361"/>
    </contour>
    <contour>
      <point x="210" y="66" type="curve"/>
      <point x="210" y="114"/>
      <point x="179" y="138"/>
      <point x="135" y="138" type="curve"/>
      <point x="91" y="138"/>
      <point x="62" y="112"/>
      <point x="62" y="66" type="curve"/>
      <point x="210" y="66"/>
      <point x="62" y="66"/>
      <point x="210" y="66" type="curve"/>
      <point x="210" y="17"/>
      <point x="180" y="-5"/>
      <point x="135" y="-5" type="curve"/>
      <point x="91" y="-5"/>
      <point x="62" y="19"/>
      <point x="62" y="66" type="curve"/>
      <point x="210" y="66"/>
      <point x="62" y="66"/>
    </contour>
  </outline>
</glyph>
<glyph name="question" format="1">
  <advance width="484"/>
  <unicode hex="003F"/>
  <outline>
    <contour>
      <point x="165" y="380" type="curve"/>
      <point x="165" y="343"/>
      <point x="165" y="258"/>
      <point x="165" y="221" type="curve"/>
      <point x="295" y="221"/>
      <point x="165" y="221"/>
      <point x="295" y="221" type="curve"/>
      <point x="295" y="258"/>
      <point x="295" y="343"/>
      <point x="295" y="380" type="curve"/>
      <point x="165" y="380"/>
      <point x="295" y="380"/>
    </contour>
    <contour>
      <point x="105" y="581" type="line"/>
      <point x="137" y="615"/>
      <point x="165" y="634"/>
      <point x="209" y="634" type="curve"/>
      <point x="273" y="634"/>
      <point x="306" y="585"/>
      <point x="306" y="518" type="curve"/>
      <point x="306" y="436"/>
      <point x="259" y="380"/>
      <point x="179" y="380" type="curve"/>
      <point x="179" y="341"/>
      <point x="178" y="313"/>
      <point x="178" y="274" type="curve"/>
      <point x="338" y="274"/>
      <point x="442" y="367"/>
      <point x="442" y="518" type="curve"/>
      <point x="442" y="664"/>
      <point x="351" y="752"/>
      <point x="215" y="752" type="curve"/>
      <point x="136" y="752"/>
      <point x="75" y="727"/>
      <point x="30" y="672" type="curve"/>
    </contour>
    <contour>
      <point x="305" y="62" type="curve"/>
      <point x="305" y="110"/>
      <point x="274" y="134"/>
      <point x="230" y="134" type="curve"/>
      <point x="186" y="134"/>
      <point x="157" y="108"/>
      <point x="157" y="62" type="curve"/>
      <point x="305" y="62"/>
      <point x="157" y="62"/>
      <point x="305" y="62" type="curve"/>
      <point x="305" y="13"/>
      <point x="275" y="-9"/>
      <point x="230" y="-9" type="curve"/>
      <point x="186" y="-9"/>
      <point x="157" y="15"/>
      <point x="157" y="62" type="curve"/>
      <point x="305" y="62"/>
      <point x="157" y="62"/>
    </contour>
  </outline>
</glyph>
<glyph name="C" format="1">
  <advance width="610"/>
  <unicode hex="0043"/>
  <outline>
    <contour>
      <point x="338" y="780" type="move" name="top"/>
    </contour>
    <contour>
      <point x="375" y="5" type="move" name="bottom"/>
    </contour>
    <contour>
      <point x="442" y="654" type="curve"/>
      <point x="442" y="534"/>
      <point x="442" y="654"/>
      <point x="442" y="534" type="curve"/>
      <point x="554" y="534"/>
      <point x="442" y="534"/>
      <point x="554" y="534" type="curve"/>
      <point x="554" y="654"/>
      <point x="554" y="534"/>
      <point x="554" y="654" type="curve"/>
      <point x="442" y="654"/>
      <point x="554" y="654"/>
    </contour>
    <contour>
      <point x="554" y="654" type="curve"/>
      <point x="496" y="697"/>
      <point x="426" y="727"/>
      <point x="346" y="727" type="curve"/>
      <point x="143" y="727"/>
      <point x="47" y="571"/>
      <point x="47" y="345" type="curve"/>
      <point x="47" y="138"/>
      <point x="140" y="-5"/>
      <point x="332" y="-5" type="curve"/>
      <point x="435" y="-5"/>
      <point x="505" y="29"/>
      <point x="566" y="99" type="curve"/>
      <point x="483" y="181"/>
      <point x="566" y="99"/>
      <point x="483" y="181" type="curve"/>
      <point x="439" y="138"/>
      <point x="401" y="110"/>
      <point x="339" y="110" type="curve"/>
      <point x="222" y="110"/>
      <point x="190" y="216"/>
      <point x="190" y="350" type="curve"/>
      <point x="190" y="496"/>
      <point x="219" y="612"/>
      <point x="341" y="612" type="curve"/>
      <point x="393" y="612"/>
      <point x="439" y="594"/>
      <point x="476" y="566" type="curve"/>
      <point x="554" y="654"/>
      <point x="476" y="566"/>
    </contour>
  </outline>
</glyph>
<glyph name="D" format="1">
  <advance width="697"/>
  <unicode hex="0044"/>
  <outline>
    <contour>
      <point x="317" y="780" type="move" name="top"/>
    </contour>
    <contour>
      <point x="200" y="110" type="curve"/>
      <point x="63" y="110"/>
      <point x="200" y="110"/>
      <point x="63" y="110" type="curve"/>
      <point x="63" y="0"/>
      <point x="63" y="110"/>
      <point x="63" y="0" type="curve"/>
      <point x="109" y="0"/>
      <point x="155" y="0"/>
      <point x="200" y="0" type="curve"/>
      <point x="200" y="110"/>
      <point x="200" y="0"/>
    </contour>
    <contour>
      <point x="200" y="722" type="curve"/>
      <point x="155" y="722"/>
      <point x="109" y="722"/>
      <point x="63" y="722" type="curve"/>
      <point x="63" y="612"/>
      <point x="63" y="722"/>
      <point x="63" y="612" type="curve"/>
      <point x="200" y="612"/>
      <point x="63" y="612"/>
      <point x="200" y="612" type="curve"/>
      <point x="200" y="722"/>
      <point x="200" y="612"/>
    </contour>
    <contour>
      <point x="127" y="722" type="curve"/>
      <point x="127" y="481"/>
      <point x="127" y="241"/>
      <point x="127" y="0" type="curve"/>
      <point x="270" y="0"/>
      <point x="127" y="0"/>
      <point x="270" y="0" type="curve"/>
      <point x="270" y="241"/>
      <point x="270" y="481"/>
      <point x="270" y="722" type="curve"/>
      <point x="127" y="722"/>
      <point x="270" y="722"/>
    </contour>
    <contour>
      <point x="200" y="0" type="curve"/>
      <point x="248" y="0"/>
      <point x="296" y="0"/>
      <point x="345" y="0" type="curve"/>
      <point x="554" y="0"/>
      <point x="649" y="134"/>
      <point x="649" y="354" type="curve"/>
      <point x="649" y="581"/>
      <point x="557" y="722"/>
      <point x="343" y="722" type="curve"/>
      <point x="296" y="722"/>
      <point x="248" y="722"/>
      <point x="200" y="722" type="curve"/>
      <point x="200" y="612"/>
      <point x="200" y="722"/>
      <point x="200" y="612" type="curve"/>
      <point x="246" y="612"/>
      <point x="291" y="612"/>
      <point x="337" y="612" type="curve"/>
      <point x="473" y="612"/>
      <point x="506" y="504"/>
      <point x="506" y="352" type="curve"/>
      <point x="506" y="212"/>
      <point x="479" y="110"/>
      <point x="358" y="110" type="curve"/>
      <point x="305" y="110"/>
      <point x="253" y="110"/>
      <point x="200" y="110" type="curve"/>
      <point x="200" y="0"/>
      <point x="200" y="110"/>
    </contour>
  </outline>
</glyph>
<glyph name="J" format="1">
  <advance width="398"/>
  <unicode hex="004A"/>
  <outline>
    <contour>
      <point x="243" y="722" type="curve"/>
      <point x="199" y="722"/>
      <point x="155" y="722"/>
      <point x="110" y="722" type="curve"/>
      <point x="110" y="612"/>
      <point x="110" y="722"/>
      <point x="110" y="612" type="curve"/>
      <point x="243" y="612"/>
      <point x="110" y="612"/>
      <point x="243" y="612" type="curve"/>
      <point x="243" y="722"/>
      <point x="243" y="612"/>
    </contour>
    <contour>
      <point x="243" y="612" type="curve"/>
      <point x="376" y="612"/>
      <point x="243" y="612"/>
      <point x="376" y="612" type="curve"/>
      <point x="376" y="722"/>
      <point x="376" y="612"/>
      <point x="376" y="722" type="curve"/>
      <point x="332" y="722"/>
      <point x="287" y="722"/>
      <point x="243" y="722" type="curve"/>
      <point x="243" y="612"/>
      <point x="243" y="722"/>
    </contour>
    <contour>
      <point x="-4" y="45" type="curve"/>
      <point x="22" y="23"/>
      <point x="62" y="-4"/>
      <point x="113" y="-4" type="curve"/>
      <point x="251" y="-4"/>
      <point x="314" y="85"/>
      <point x="314" y="246" type="curve"/>
      <point x="314" y="403"/>
      <point x="314" y="564"/>
      <point x="314" y="722" type="curve"/>
      <point x="171" y="722"/>
      <point x="314" y="722"/>
      <point x="171" y="722" type="curve"/>
      <point x="171" y="564"/>
      <point x="171" y="403"/>
      <point x="171" y="246" type="curve"/>
      <point x="171" y="172"/>
      <point x="172" y="109"/>
      <point x="113" y="109" type="curve"/>
      <point x="90" y="109"/>
      <point x="78" y="121"/>
      <point x="61" y="133" type="curve"/>
      <point x="-4" y="45"/>
      <point x="61" y="133"/>
    </contour>
  </outline>
</glyph>
<glyph name="w" format="1">
  <advance width="795"/>
  <unicode hex="0077"/>
  <outline>
    <contour>
      <point x="665" y="423" type="curve"/>
      <point x="782" y="423"/>
      <point x="665" y="423"/>
      <point x="782" y="423" type="curve"/>
      <point x="782" y="533"/>
      <point x="782" y="423"/>
      <point x="782" y="533" type="curve"/>
      <point x="743" y="533"/>
      <point x="703" y="533"/>
      <point x="665" y="533" type="curve"/>
      <point x="665" y="423"/>
      <point x="665" y="533"/>
    </contour>
    <contour>
      <point x="665" y="533" type="curve"/>
      <point x="624" y="533"/>
      <point x="582" y="533"/>
      <point x="542" y="533" type="curve"/>
      <point x="542" y="423"/>
      <point x="542" y="533"/>
      <point x="542" y="423" type="curve"/>
      <point x="665" y="423"/>
      <point x="542" y="423"/>
      <point x="665" y="423" type="curve"/>
      <point x="665" y="533"/>
      <point x="665" y="423"/>
    </contour>
    <contour>
      <point x="134" y="533" type="curve"/>
      <point x="95" y="533"/>
      <point x="55" y="533"/>
      <point x="16" y="533" type="curve"/>
      <point x="16" y="423"/>
      <point x="16" y="533"/>
      <point x="16" y="423" type="curve"/>
      <point x="134" y="423"/>
      <point x="16" y="423"/>
      <point x="134" y="423" type="curve"/>
      <point x="134" y="533"/>
      <point x="134" y="423"/>
    </contour>
    <contour>
      <point x="134" y="423" type="curve"/>
      <point x="251" y="423"/>
      <point x="134" y="423"/>
      <point x="251" y="423" type="curve"/>
      <point x="251" y="533"/>
      <point x="251" y="423"/>
      <point x="251" y="533" type="curve"/>
      <point x="212" y="533"/>
      <point x="172" y="533"/>
      <point x="134" y="533" type="curve"/>
      <point x="134" y="423"/>
      <point x="134" y="533"/>
    </contour>
    <contour>
      <point x="311" y="0" type="curve"/>
      <point x="362" y="178"/>
      <point x="413" y="355"/>
      <point x="463" y="533" type="curve"/>
      <point x="340" y="533"/>
      <point x="463" y="533"/>
      <point x="340" y="533" type="curve"/>
      <point x="290" y="355"/>
      <point x="240" y="178"/>
      <point x="190" y="0" type="curve"/>
      <point x="311" y="0"/>
      <point x="190" y="0"/>
    </contour>
    <contour>
      <point x="623" y="533" type="curve"/>
      <point x="576" y="355"/>
      <point x="529" y="178"/>
      <point x="483" y="0" type="curve"/>
      <point x="603" y="0"/>
      <point x="483" y="0"/>
      <point x="603" y="0" type="curve"/>
      <point x="651" y="178"/>
      <point x="699" y="355"/>
      <point x="746" y="533" type="curve"/>
      <point x="623" y="533"/>
      <point x="746" y="533"/>
    </contour>
    <contour>
      <point x="345" y="533" type="curve"/>
      <point x="390" y="355"/>
      <point x="436" y="178"/>
      <point x="482" y="0" type="curve"/>
      <point x="603" y="0"/>
      <point x="482" y="0"/>
      <point x="603" y="0" type="curve"/>
      <point x="558" y="178"/>
      <point x="512" y="355"/>
      <point x="467" y="533" type="curve"/>
      <point x="345" y="533"/>
      <point x="467" y="533"/>
    </contour>
    <contour>
      <point x="53" y="533" type="curve"/>
      <point x="98" y="355"/>
      <point x="144" y="178"/>
      <point x="190" y="0" type="curve"/>
      <point x="310" y="0"/>
      <point x="190" y="0"/>
      <point x="310" y="0" type="curve"/>
      <point x="265" y="178"/>
      <point x="220" y="355"/>
      <point x="175" y="533" type="curve"/>
      <point x="53" y="533"/>
      <point x="175" y="533"/>
    </contour>
  </outline>
</glyph>
<glyph name="cent" format="1">
  <advance width="568"/>
  <unicode hex="00A2"/>
  <outline>
    <contour>
      <point x="375" y="-53" type="curve"/>
      <point x="375" y="-13"/>
      <point x="375" y="27"/>
      <point x="375" y="67" type="curve"/>
      <point x="232" y="67"/>
      <point x="375" y="67"/>
      <point x="232" y="67" type="curve"/>
      <point x="232" y="27"/>
      <point x="232" y="-13"/>
      <point x="232" y="-53" type="curve"/>
      <point x="375" y="-53"/>
      <point x="232" y="-53"/>
    </contour>
    <contour>
      <point x="248" y="778" type="curve"/>
      <point x="248" y="742"/>
      <point x="248" y="706"/>
      <point x="248" y="670" type="curve"/>
      <point x="391" y="670"/>
      <point x="248" y="670"/>
      <point x="391" y="670" type="curve"/>
      <point x="391" y="706"/>
      <point x="391" y="742"/>
      <point x="391" y="778" type="curve"/>
      <point x="248" y="778"/>
      <point x="391" y="778"/>
    </contour>
    <contour>
      <point x="520" y="610" type="curve"/>
      <point x="458" y="667"/>
      <point x="405" y="687"/>
      <point x="328" y="687" type="curve"/>
      <point x="146" y="687"/>
      <point x="44" y="554"/>
      <point x="44" y="363" type="curve"/>
      <point x="44" y="180"/>
      <point x="127" y="45"/>
      <point x="297" y="45" type="curve"/>
      <point x="389" y="45"/>
      <point x="454" y="71"/>
      <point x="516" y="146" type="curve"/>
      <point x="430" y="228"/>
      <point x="516" y="146"/>
      <point x="430" y="228" type="curve"/>
      <point x="392" y="191"/>
      <point x="363" y="161"/>
      <point x="310" y="161" type="curve"/>
      <point x="217" y="161"/>
      <point x="187" y="256"/>
      <point x="187" y="369" type="curve"/>
      <point x="187" y="480"/>
      <point x="227" y="571"/>
      <point x="315" y="571" type="curve"/>
      <point x="366" y="571"/>
      <point x="400" y="553"/>
      <point x="439" y="519" type="curve"/>
      <point x="520" y="610"/>
      <point x="439" y="519"/>
    </contour>
    <contour>
      <point x="408" y="610" type="curve"/>
      <point x="408" y="490"/>
      <point x="408" y="590"/>
      <point x="408" y="470" type="curve"/>
      <point x="520" y="470"/>
      <point x="408" y="470"/>
      <point x="520" y="470" type="curve"/>
      <point x="520" y="590"/>
      <point x="520" y="490"/>
      <point x="520" y="610" type="curve"/>
      <point x="408" y="610"/>
      <point x="520" y="610"/>
    </contour>
  </outline>
</glyph>
<glyph name="copyright" format="1">
  <advance width="667"/>
  <unicode hex="00A9"/>
  <outline>
    <contour>
      <point x="162" y="324" type="curve"/>
      <point x="162" y="452"/>
      <point x="221" y="556"/>
      <point x="337" y="556" type="curve"/>
      <point x="451" y="556"/>
      <point x="508" y="450"/>
      <point x="508" y="322" type="curve"/>
      <point x="508" y="199"/>
      <point x="454" y="94"/>
      <point x="344" y="94" type="curve"/>
      <point x="228" y="94"/>
      <point x="162" y="197"/>
      <point x="162" y="324" type="curve"/>
      <point x="47" y="324"/>
      <point x="165" y="324"/>
      <point x="50" y="324" type="curve"/>
      <point x="50" y="142"/>
      <point x="162" y="6"/>
      <point x="339" y="6" type="curve"/>
      <point x="512" y="6"/>
      <point x="618" y="144"/>
      <point x="618" y="326" type="curve"/>
      <point x="618" y="508"/>
      <point x="510" y="645"/>
      <point x="337" y="645" type="curve"/>
      <point x="161" y="645"/>
      <point x="50" y="508"/>
      <point x="50" y="324" type="curve"/>
      <point x="165" y="324"/>
      <point x="47" y="324"/>
    </contour>
    <contour>
      <point x="366" y="417" type="curve"/>
      <point x="366" y="407"/>
      <point x="366" y="383"/>
      <point x="366" y="368" type="curve"/>
      <point x="470" y="368"/>
      <point x="366" y="368"/>
      <point x="470" y="368" type="curve"/>
      <point x="470" y="399"/>
      <point x="470" y="440"/>
      <point x="470" y="462" type="curve"/>
      <point x="366" y="417"/>
      <point x="470" y="462"/>
    </contour>
    <contour>
      <point x="470" y="462" type="curve"/>
      <point x="436" y="500"/>
      <point x="394" y="513"/>
      <point x="344" y="513" type="curve"/>
      <point x="234" y="513"/>
      <point x="180" y="436"/>
      <point x="180" y="323" type="curve"/>
      <point x="180" y="214"/>
      <point x="227" y="138"/>
      <point x="330" y="138" type="curve"/>
      <point x="386" y="138"/>
      <point x="426" y="148"/>
      <point x="465" y="206" type="curve"/>
      <point x="394" y="257"/>
      <point x="465" y="206"/>
      <point x="394" y="257" type="curve"/>
      <point x="375" y="239"/>
      <point x="361" y="227"/>
      <point x="335" y="227" type="curve"/>
      <point x="290" y="227"/>
      <point x="285" y="274"/>
      <point x="285" y="327" type="curve"/>
      <point x="285" y="380"/>
      <point x="293" y="425"/>
      <point x="339" y="425" type="curve"/>
      <point x="350" y="425"/>
      <point x="359" y="423"/>
      <point x="366" y="417" type="curve"/>
      <point x="470" y="462"/>
      <point x="366" y="417"/>
    </contour>
  </outline>
</glyph>
<glyph name="macron" format="1">
  <advance width="239"/>
  <unicode hex="00AF"/>
  <outline>
    <contour>
      <point x="117" y="575" type="move" name="_top"/>
    </contour>
    <contour>
      <point x="201" y="685" type="curve"/>
      <point x="145" y="685"/>
      <point x="88" y="685"/>
      <point x="32" y="685" type="curve"/>
      <point x="32" y="575"/>
      <point x="32" y="685"/>
      <point x="32" y="575" type="curve"/>
      <point x="88" y="575"/>
      <point x="145" y="575"/>
      <point x="201" y="575" type="curve"/>
      <point x="201" y="685"/>
      <point x="201" y="575"/>
    </contour>
  </outline>
</glyph>
<glyph name="plusminus" format="1">
  <advance width="628"/>
  <unicode hex="00B1"/>
  <outline>
    <contour>
      <point x="54" y="57" type="line"/>
      <point x="575" y="57" type="line"/>
      <point x="575" y="178" type="line"/>
      <point x="54" y="178" type="line"/>
    </contour>
    <contour>
      <point x="54" y="255" type="curve"/>
      <point x="575" y="255" type="line"/>
      <point x="575" y="376"/>
      <point x="575" y="255"/>
      <point x="575" y="376" type="curve"/>
      <point x="54" y="376" type="line"/>
      <point x="54" y="255"/>
      <point x="54" y="376"/>
    </contour>
    <contour>
      <point x="381" y="58" type="curve"/>
      <point x="381" y="578" type="line"/>
      <point x="238" y="578"/>
      <point x="391" y="578"/>
      <point x="248" y="578" type="curve"/>
      <point x="248" y="58" type="line"/>
      <point x="391" y="58"/>
      <point x="238" y="58"/>
    </contour>
  </outline>
</glyph>
<glyph name="paragraph" format="1">
  <advance width="728"/>
  <unicode hex="00B6"/>
  <outline>
    <contour>
      <point x="377" y="612" type="curve"/>
      <point x="514" y="612"/>
      <point x="377" y="612"/>
      <point x="514" y="612" type="curve"/>
      <point x="514" y="722"/>
      <point x="514" y="612"/>
      <point x="514" y="722" type="curve"/>
      <point x="468" y="722"/>
      <point x="422" y="722"/>
      <point x="377" y="722" type="curve"/>
      <point x="377" y="612"/>
      <point x="377" y="722"/>
    </contour>
    <contour>
      <point x="377" y="0" type="curve"/>
      <point x="422" y="0"/>
      <point x="468" y="0"/>
      <point x="514" y="0" type="curve"/>
      <point x="514" y="110"/>
      <point x="514" y="0"/>
      <point x="514" y="110" type="curve"/>
      <point x="377" y="110"/>
      <point x="514" y="110"/>
      <point x="377" y="110" type="curve"/>
      <point x="377" y="0"/>
      <point x="377" y="110"/>
    </contour>
    <contour>
      <point x="377" y="110" type="curve"/>
      <point x="239" y="110"/>
      <point x="377" y="110"/>
      <point x="239" y="110" type="curve"/>
      <point x="239" y="0"/>
      <point x="239" y="110"/>
      <point x="239" y="0" type="curve"/>
      <point x="377" y="0"/>
      <point x="331" y="0"/>
      <point x="377" y="0" type="curve"/>
      <point x="377" y="110"/>
      <point x="377" y="0"/>
    </contour>
    <contour>
      <point x="353" y="389" type="curve"/>
      <point x="319" y="369"/>
      <point x="293" y="357"/>
      <point x="253" y="357" type="curve"/>
      <point x="197" y="357"/>
      <point x="177" y="409"/>
      <point x="177" y="474" type="curve"/>
      <point x="177" y="552"/>
      <point x="216" y="612"/>
      <point x="289" y="612" type="curve"/>
      <point x="318" y="612"/>
      <point x="346" y="612"/>
      <point x="374" y="612" type="curve"/>
      <point x="374" y="722"/>
      <point x="374" y="612"/>
      <point x="374" y="722" type="curve"/>
      <point x="340" y="722"/>
      <point x="305" y="722"/>
      <point x="270" y="722" type="curve"/>
      <point x="126" y="722"/>
      <point x="34" y="624"/>
      <point x="34" y="479" type="curve"/>
      <point x="34" y="339"/>
      <point x="125" y="254"/>
      <point x="266" y="252" type="curve"/>
      <point x="316" y="252"/>
      <point x="356" y="273"/>
      <point x="398" y="298" type="curve"/>
      <point x="353" y="389"/>
      <point x="397" y="301"/>
    </contour>
    <contour>
      <point x="449" y="0" type="curve"/>
      <point x="449" y="241"/>
      <point x="449" y="481"/>
      <point x="449" y="722" type="curve"/>
      <point x="306" y="722"/>
      <point x="449" y="722"/>
      <point x="306" y="722" type="curve"/>
      <point x="306" y="481"/>
      <point x="306" y="241"/>
      <point x="306" y="0" type="curve"/>
      <point x="449" y="0"/>
      <point x="306" y="0"/>
    </contour>
    <contour>
      <point x="653" y="0" type="curve"/>
      <point x="653" y="241"/>
      <point x="653" y="481"/>
      <point x="653" y="722" type="curve"/>
      <point x="510" y="722"/>
      <point x="653" y="722"/>
      <point x="510" y="722" type="curve"/>
      <point x="510" y="481"/>
      <point x="510" y="241"/>
      <point x="510" y="0" type="curve"/>
      <point x="653" y="0"/>
      <point x="510" y="0"/>
    </contour>
  </outline>
</glyph>
<glyph name="cedilla" format="1">
  <advance width="350"/>
  <unicode hex="00B8"/>
  <outline>
    <contour>
      <point x="225" y="89" type="move" name="_bottom"/>
    </contour>
    <contour>
      <point x="123" y="166" type="curve"/>
      <point x="113" y="145"/>
      <point x="73" y="49"/>
      <point x="63" y="27" type="curve"/>
      <point x="161" y="-61"/>
      <point x="63" y="27"/>
      <point x="161" y="-61" type="curve"/>
      <point x="173" y="-35"/>
      <point x="221" y="63"/>
      <point x="233" y="89" type="curve"/>
      <point x="123" y="166"/>
      <point x="233" y="89"/>
    </contour>
    <contour>
      <point x="161" y="-61" type="curve"/>
      <point x="166" y="-57"/>
      <point x="170" y="-53"/>
      <point x="176" y="-53" type="curve"/>
      <point x="182" y="-53"/>
      <point x="188" y="-56"/>
      <point x="188" y="-65" type="curve"/>
      <point x="188" y="-78"/>
      <point x="174" y="-82"/>
      <point x="160" y="-82" type="curve"/>
      <point x="142" y="-82"/>
      <point x="127" y="-78"/>
      <point x="111" y="-68" type="curve"/>
      <point x="57" y="-148"/>
      <point x="111" y="-68"/>
      <point x="57" y="-148" type="curve"/>
      <point x="87" y="-168"/>
      <point x="116" y="-176"/>
      <point x="153" y="-176" type="curve"/>
      <point x="224" y="-176"/>
      <point x="273" y="-137"/>
      <point x="273" y="-63" type="curve"/>
      <point x="273" y="7"/>
      <point x="229" y="51"/>
      <point x="160" y="51" type="curve"/>
      <point x="123" y="51"/>
      <point x="96" y="46"/>
      <point x="63" y="27" type="curve"/>
      <point x="161" y="-61"/>
      <point x="63" y="27"/>
    </contour>
  </outline>
</glyph>
<glyph name="guillemotright" format="1">
  <advance width="447"/>
  <unicode hex="00BB"/>
  <outline>
    <contour>
      <point x="247" y="489" type="curve"/>
      <point x="289" y="454"/>
      <point x="362" y="393"/>
      <point x="405" y="358" type="curve"/>
      <point x="405" y="236"/>
      <point x="405" y="338"/>
      <point x="405" y="216" type="curve"/>
      <point x="362" y="251"/>
      <point x="289" y="323"/>
      <point x="247" y="358" type="curve"/>
      <point x="247" y="479"/>
      <point x="247" y="368"/>
    </contour>
    <contour>
      <point x="247" y="219" type="curve"/>
      <point x="289" y="254"/>
      <point x="362" y="323"/>
      <point x="405" y="358" type="curve"/>
      <point x="405" y="236"/>
      <point x="405" y="338"/>
      <point x="405" y="216" type="curve"/>
      <point x="362" y="181"/>
      <point x="289" y="122"/>
      <point x="247" y="88" type="curve"/>
      <point x="247" y="209"/>
      <point x="247" y="98"/>
    </contour>
    <contour>
      <point x="65" y="489" type="curve"/>
      <point x="107" y="454"/>
      <point x="180" y="393"/>
      <point x="223" y="358" type="curve"/>
      <point x="223" y="236"/>
      <point x="223" y="338"/>
      <point x="223" y="216" type="curve"/>
      <point x="180" y="251"/>
      <point x="107" y="323"/>
      <point x="65" y="358" type="curve"/>
      <point x="65" y="479"/>
      <point x="65" y="368"/>
    </contour>
    <contour>
      <point x="65" y="219" type="curve"/>
      <point x="107" y="254"/>
      <point x="180" y="323"/>
      <point x="223" y="358" type="curve"/>
      <point x="223" y="236"/>
      <point x="223" y="338"/>
      <point x="223" y="216" type="curve"/>
      <point x="180" y="181"/>
      <point x="107" y="122"/>
      <point x="65" y="88" type="curve"/>
      <point x="65" y="209"/>
      <point x="65" y="98"/>
    </contour>
  </outline>
</glyph>
<glyph name="Odieresis" format="1">
  <advance width="670"/>
  <unicode hex="00D6"/>
  <outline>
    <contour>
      <point x="190" y="360" type="curve"/>
      <point x="190" y="495"/>
      <point x="212" y="612"/>
      <point x="332" y="612" type="curve"/>
      <point x="447" y="612"/>
      <point x="480" y="498"/>
      <point x="480" y="363" type="curve"/>
      <point x="480" y="227"/>
      <point x="456" y="111"/>
      <point x="337" y="111" type="curve"/>
      <point x="220" y="111"/>
      <point x="190" y="224"/>
      <point x="190" y="360" type="curve"/>
      <point x="47" y="360"/>
      <point x="190" y="360"/>
      <point x="47" y="360" type="curve"/>
      <point x="47" y="151"/>
      <point x="140" y="-5"/>
      <point x="332" y="-5" type="curve"/>
      <point x="527" y="-5"/>
      <point x="623" y="152"/>
      <point x="623" y="363" type="curve"/>
      <point x="623" y="570"/>
      <point x="531" y="727"/>
      <point x="338" y="727" type="curve"/>
      <point x="144" y="727"/>
      <point x="47" y="570"/>
      <point x="47" y="360" type="curve"/>
      <point x="190" y="360"/>
      <point x="47" y="360"/>
    </contour>
    <contour>
      <point x="311" y="845" type="curve"/>
      <point x="311" y="893"/>
      <point x="279" y="917"/>
      <point x="236" y="917" type="curve"/>
      <point x="192" y="917"/>
      <point x="163" y="891"/>
      <point x="163" y="845" type="curve"/>
      <point x="311" y="845"/>
      <point x="163" y="845"/>
      <point x="311" y="845" type="curve"/>
      <point x="311" y="796"/>
      <point x="280" y="774"/>
      <point x="236" y="774" type="curve"/>
      <point x="191" y="774"/>
      <point x="163" y="798"/>
      <point x="163" y="845" type="curve"/>
      <point x="311" y="845"/>
      <point x="163" y="845"/>
    </contour>
    <contour>
      <point x="511" y="845" type="curve"/>
      <point x="511" y="893"/>
      <point x="479" y="917"/>
      <point x="436" y="917" type="curve"/>
      <point x="392" y="917"/>
      <point x="363" y="891"/>
      <point x="363" y="845" type="curve"/>
      <point x="511" y="845"/>
      <point x="363" y="845"/>
      <point x="511" y="845" type="curve"/>
      <point x="511" y="796"/>
      <point x="480" y="774"/>
      <point x="436" y="774" type="curve"/>
      <point x="391" y="774"/>
      <point x="363" y="798"/>
      <point x="363" y="845" type="curve"/>
      <point x="511" y="845"/>
      <point x="363" y="845"/>
    </contour>
  </outline>
</glyph>
<glyph name="aacute" format="1">
  <advance width="530"/>
  <unicode hex="00E1"/>
  <outline>
    <contour>
      <point x="69" y="461" type="curve"/>
      <point x="69" y="349"/>
      <point x="69" y="461"/>
      <point x="69" y="349" type="curve"/>
      <point x="181" y="349"/>
      <point x="69" y="349"/>
      <point x="181" y="349" type="curve"/>
      <point x="181" y="461"/>
      <point x="181" y="349"/>
      <point x="181" y="461" type="curve"/>
      <point x="69" y="461"/>
      <point x="181" y="461"/>
    </contour>
    <contour>
      <point x="447" y="0" type="curve"/>
      <point x="447" y="123"/>
      <point x="447" y="247"/>
      <point x="447" y="370" type="curve"/>
      <point x="447" y="488"/>
      <point x="368" y="538"/>
      <point x="253" y="538" type="curve"/>
      <point x="170" y="538"/>
      <point x="111" y="505"/>
      <point x="69" y="461" type="curve"/>
      <point x="122" y="368"/>
      <point x="69" y="461"/>
      <point x="122" y="368" type="curve"/>
      <point x="148" y="394"/>
      <point x="181" y="423"/>
      <point x="233" y="423" type="curve"/>
      <point x="279" y="423"/>
      <point x="304" y="397"/>
      <point x="304" y="352" type="curve"/>
      <point x="304" y="235"/>
      <point x="304" y="117"/>
      <point x="304" y="0" type="curve"/>
      <point x="447" y="0"/>
      <point x="304" y="0"/>
    </contour>
    <contour>
      <point x="377" y="0" type="curve"/>
      <point x="418" y="0"/>
      <point x="461" y="0"/>
      <point x="502" y="0" type="curve"/>
      <point x="502" y="110"/>
      <point x="502" y="0"/>
      <point x="502" y="110" type="curve"/>
      <point x="377" y="110"/>
      <point x="502" y="110"/>
      <point x="377" y="110" type="curve"/>
      <point x="377" y="0"/>
      <point x="377" y="110"/>
    </contour>
    <contour>
      <point x="372" y="350" type="curve"/>
      <point x="314" y="341"/>
      <point x="279" y="339"/>
      <point x="222" y="330" type="curve"/>
      <point x="113" y="313"/>
      <point x="41" y="269"/>
      <point x="41" y="165" type="curve"/>
      <point x="41" y="58"/>
      <point x="98" y="-5"/>
      <point x="204" y="-5" type="curve"/>
      <point x="309" y="-5"/>
      <point x="349" y="83"/>
      <point x="411" y="153" type="curve"/>
      <point x="339" y="214"/>
      <point x="411" y="153"/>
      <point x="339" y="214" type="curve"/>
      <point x="314" y="155"/>
      <point x="295" y="105"/>
      <point x="238" y="105" type="curve"/>
      <point x="195" y="105"/>
      <point x="179" y="129"/>
      <point x="179" y="171" type="curve"/>
      <point x="179" y="202"/>
      <point x="201" y="227"/>
      <point x="226" y="231" type="curve"/>
      <point x="289" y="241"/>
      <point x="315" y="246"/>
      <point x="378" y="256" type="curve"/>
      <point x="372" y="350"/>
      <point x="378" y="256"/>
    </contour>
    <contour>
      <point x="321" y="609" type="line"/>
      <point x="445" y="775" type="line"/>
      <point x="270" y="775" type="line"/>
      <point x="186" y="609" type="line"/>
    </contour>
  </outline>
</glyph>
<glyph name="ccedilla" format="1">
  <advance width="484"/>
  <unicode hex="00E7"/>
  <outline>
    <contour>
      <point x="323" y="469" type="curve"/>
      <point x="323" y="349"/>
      <point x="323" y="469"/>
      <point x="323" y="349" type="curve"/>
      <point x="435" y="349"/>
      <point x="323" y="349"/>
      <point x="435" y="349" type="curve"/>
      <point x="435" y="469"/>
      <point x="435" y="349"/>
      <point x="435" y="469" type="curve"/>
      <point x="323" y="469"/>
      <point x="435" y="469"/>
    </contour>
    <contour>
      <point x="435" y="469" type="curve"/>
      <point x="392" y="508"/>
      <point x="335" y="538"/>
      <point x="274" y="538" type="curve"/>
      <point x="119" y="538"/>
      <point x="37" y="435"/>
      <point x="37" y="267" type="curve"/>
      <point x="37" y="100"/>
      <point x="116" y="-5"/>
      <point x="272" y="-5" type="curve"/>
      <point x="341" y="-5"/>
      <point x="408" y="24"/>
      <point x="446" y="95" type="curve"/>
      <point x="351" y="162"/>
      <point x="446" y="95"/>
      <point x="351" y="162" type="curve"/>
      <point x="332" y="137"/>
      <point x="310" y="110"/>
      <point x="279" y="110" type="curve"/>
      <point x="202" y="110"/>
      <point x="180" y="177"/>
      <point x="180" y="267" type="curve"/>
      <point x="180" y="356"/>
      <point x="198" y="423"/>
      <point x="273" y="423" type="curve"/>
      <point x="302" y="423"/>
      <point x="329" y="410"/>
      <point x="350" y="392" type="curve"/>
      <point x="435" y="469"/>
      <point x="350" y="392"/>
    </contour>
    <contour>
      <point x="206" y="83" type="curve"/>
      <point x="196" y="62"/>
      <point x="156" y="-34"/>
      <point x="146" y="-56" type="curve"/>
      <point x="244" y="-144"/>
      <point x="146" y="-56"/>
      <point x="244" y="-144" type="curve"/>
      <point x="256" y="-118"/>
      <point x="304" y="-20"/>
      <point x="316" y="6" type="curve"/>
      <point x="206" y="83"/>
      <point x="316" y="6"/>
    </contour>
    <contour>
      <point x="244" y="-144" type="curve"/>
      <point x="249" y="-140"/>
      <point x="253" y="-136"/>
      <point x="259" y="-136" type="curve"/>
      <point x="265" y="-136"/>
      <point x="271" y="-139"/>
      <point x="271" y="-148" type="curve"/>
      <point x="271" y="-161"/>
      <point x="257" y="-165"/>
      <point x="243" y="-165" type="curve"/>
      <point x="225" y="-165"/>
      <point x="210" y="-161"/>
      <point x="194" y="-151" type="curve"/>
      <point x="140" y="-231"/>
      <point x="194" y="-151"/>
      <point x="140" y="-231" type="curve"/>
      <point x="170" y="-251"/>
      <point x="199" y="-259"/>
      <point x="236" y="-259" type="curve"/>
      <point x="307" y="-259"/>
      <point x="356" y="-220"/>
      <point x="356" y="-146" type="curve"/>
      <point x="356" y="-76"/>
      <point x="312" y="-32"/>
      <point x="243" y="-32" type="curve"/>
      <point x="206" y="-32"/>
      <point x="179" y="-37"/>
      <point x="146" y="-56" type="curve"/>
      <point x="244" y="-144"/>
      <point x="146" y="-56"/>
    </contour>
  </outline>
</glyph>
<glyph name="igrave" format="1">
  <advance width="313"/>
  <unicode hex="00EC"/>
  <outline>
    <contour>
      <point x="160" y="110" type="curve"/>
      <point x="23" y="110"/>
      <point x="160" y="110"/>
      <point x="23" y="110" type="curve"/>
      <point x="22" y="0"/>
      <point x="23" y="110"/>
      <point x="22" y="0" type="curve"/>
      <point x="68" y="0"/>
      <point x="114" y="0"/>
      <point x="160" y="0" type="curve"/>
      <point x="160" y="110"/>
      <point x="160" y="0"/>
    </contour>
    <contour>
      <point x="160" y="0" type="curve"/>
      <point x="203" y="0"/>
      <point x="246" y="0"/>
      <point x="290" y="0" type="curve"/>
      <point x="290" y="110"/>
      <point x="290" y="0"/>
      <point x="290" y="110" type="curve"/>
      <point x="160" y="110"/>
      <point x="290" y="110"/>
      <point x="160" y="110" type="curve"/>
      <point x="160" y="0"/>
      <point x="160" y="110"/>
    </contour>
    <contour>
      <point x="160" y="533" type="curve"/>
      <point x="114" y="533"/>
      <point x="68" y="533"/>
      <point x="23" y="533" type="curve"/>
      <point x="22" y="423"/>
      <point x="23" y="533"/>
      <point x="22" y="423" type="curve"/>
      <point x="160" y="423"/>
      <point x="22" y="423"/>
      <point x="160" y="423" type="curve"/>
      <point x="160" y="533"/>
      <point x="160" y="423"/>
    </contour>
    <contour>
      <point x="235" y="0" type="curve"/>
      <point x="235" y="178"/>
      <point x="235" y="355"/>
      <point x="235" y="533" type="curve"/>
      <point x="85" y="533"/>
      <point x="235" y="533"/>
      <point x="85" y="533" type="curve"/>
      <point x="85" y="355"/>
      <point x="85" y="178"/>
      <point x="85" y="0" type="curve"/>
      <point x="235" y="0"/>
      <point x="85" y="0"/>
    </contour>
    <contour>
      <point x="231" y="611" type="line"/>
      <point x="147" y="777" type="line"/>
      <point x="-28" y="777" type="line"/>
      <point x="96" y="611" type="line"/>
    </contour>
  </outline>
</glyph>
<glyph name="idieresis" format="1">
  <advance width="329"/>
  <unicode hex="00EF"/>
  <outline>
    <contour>
      <point x="168" y="110" type="curve"/>
      <point x="31" y="110"/>
      <point x="168" y="110"/>
      <point x="31" y="110" type="curve"/>
      <point x="30" y="0"/>
      <point x="31" y="110"/>
      <point x="30" y="0" type="curve"/>
      <point x="76" y="0"/>
      <point x="122" y="0"/>
      <point x="168" y="0" type="curve"/>
      <point x="168" y="110"/>
      <point x="168" y="0"/>
    </contour>
    <contour>
      <point x="168" y="0" type="curve"/>
      <point x="211" y="0"/>
      <point x="254" y="0"/>
      <point x="298" y="0" type="curve"/>
      <point x="298" y="110"/>
      <point x="298" y="0"/>
      <point x="298" y="110" type="curve"/>
      <point x="168" y="110"/>
      <point x="298" y="110"/>
      <point x="168" y="110" type="curve"/>
      <point x="168" y="0"/>
      <point x="168" y="110"/>
    </contour>
    <contour>
      <point x="168" y="533" type="curve"/>
      <point x="122" y="533"/>
      <point x="76" y="533"/>
      <point x="31" y="533" type="curve"/>
      <point x="30" y="423"/>
      <point x="31" y="533"/>
      <point x="30" y="423" type="curve"/>
      <point x="168" y="423"/>
      <point x="30" y="423"/>
      <point x="168" y="423" type="curve"/>
      <point x="168" y="533"/>
      <point x="168" y="423"/>
    </contour>
    <contour>
      <point x="243" y="0" type="curve"/>
      <point x="243" y="178"/>
      <point x="243" y="355"/>
      <point x="243" y="533" type="curve"/>
      <point x="93" y="533"/>
      <point x="243" y="533"/>
      <point x="93" y="533" type="curve"/>
      <point x="93" y="355"/>
      <point x="93" y="178"/>
      <point x="93" y="0" type="curve"/>
      <point x="243" y="0"/>
      <point x="93" y="0"/>
    </contour>
    <contour>
      <point x="146" y="675" type="curve"/>
      <point x="146" y="723"/>
      <point x="114" y="747"/>
      <point x="71" y="747" type="curve"/>
      <point x="27" y="747"/>
      <point x="-2" y="721"/>
      <point x="-2" y="675" type="curve"/>
      <point x="146" y="675"/>
      <point x="-2" y="675"/>
      <point x="146" y="675" type="curve"/>
      <point x="146" y="626"/>
      <point x="115" y="604"/>
      <point x="71" y="604" type="curve"/>
      <point x="26" y="604"/>
      <point x="-2" y="628"/>
      <point x="-2" y="675" type="curve"/>
      <point x="146" y="675"/>
      <point x="-2" y="675"/>
    </contour>
    <contour>
      <point x="346" y="675" type="curve"/>
      <point x="346" y="723"/>
      <point x="314" y="747"/>
      <point x="271" y="747" type="curve"/>
      <point x="227" y="747"/>
      <point x="198" y="721"/>
      <point x="198" y="675" type="curve"/>
      <point x="346" y="675"/>
      <point x="198" y="675"/>
      <point x="346" y="675" type="curve"/>
      <point x="346" y="626"/>
      <point x="315" y="604"/>
      <point x="271" y="604" type="curve"/>
      <point x="226" y="604"/>
      <point x="198" y="628"/>
      <point x="198" y="675" type="curve"/>
      <point x="346" y="675"/>
      <point x="198" y="675"/>
    </contour>
  </outline>
</glyph>
<glyph name="ntilde" format="1">
  <advance width="583"/>
  <unicode hex="00F1"/>
  <outline>
    <contour>
      <point x="206" y="263" type="curve"/>
      <point x="220" y="343"/>
      <point x="251" y="423"/>
      <point x="307" y="423" type="curve"/>
      <point x="363" y="423"/>
      <point x="370" y="372"/>
      <point x="370" y="308" type="curve"/>
      <point x="370" y="205"/>
      <point x="370" y="103"/>
      <point x="370" y="0" type="curve"/>
      <point x="513" y="0"/>
      <point x="370" y="0"/>
      <point x="513" y="0" type="curve"/>
      <point x="513" y="106"/>
      <point x="513" y="213"/>
      <point x="513" y="319" type="curve"/>
      <point x="513" y="446"/>
      <point x="482" y="538"/>
      <point x="360" y="538" type="curve"/>
      <point x="265" y="538"/>
      <point x="192" y="460"/>
      <point x="166" y="326" type="curve"/>
      <point x="207" y="264"/>
      <point x="165" y="325"/>
    </contour>
    <contour>
      <point x="441" y="0" type="curve"/>
      <point x="486" y="0"/>
      <point x="532" y="0"/>
      <point x="578" y="0" type="curve"/>
      <point x="578" y="110"/>
      <point x="578" y="0"/>
      <point x="578" y="110" type="curve"/>
      <point x="441" y="110"/>
      <point x="578" y="110"/>
      <point x="441" y="110" type="curve"/>
      <point x="441" y="0"/>
      <point x="441" y="110"/>
    </contour>
    <contour>
      <point x="163" y="110" type="curve"/>
      <point x="25" y="110"/>
      <point x="163" y="110"/>
      <point x="25" y="110" type="curve"/>
      <point x="25" y="0"/>
      <point x="25" y="110"/>
      <point x="25" y="0" type="curve"/>
      <point x="71" y="0"/>
      <point x="117" y="0"/>
      <point x="163" y="0" type="curve"/>
      <point x="163" y="110"/>
      <point x="163" y="0"/>
    </contour>
    <contour>
      <point x="163" y="0" type="curve"/>
      <point x="206" y="0"/>
      <point x="163" y="0"/>
      <point x="292" y="0" type="curve"/>
      <point x="292" y="110"/>
      <point x="292" y="0"/>
      <point x="292" y="110" type="curve"/>
      <point x="163" y="110"/>
      <point x="292" y="110"/>
      <point x="163" y="110" type="curve"/>
      <point x="163" y="0"/>
      <point x="163" y="110"/>
    </contour>
    <contour>
      <point x="234" y="0" type="curve"/>
      <point x="234" y="178"/>
      <point x="234" y="355"/>
      <point x="234" y="533" type="curve"/>
      <point x="91" y="533"/>
      <point x="234" y="533"/>
      <point x="91" y="533" type="curve"/>
      <point x="91" y="355"/>
      <point x="91" y="178"/>
      <point x="91" y="0" type="curve"/>
      <point x="234" y="0"/>
      <point x="91" y="0"/>
    </contour>
    <contour>
      <point x="163" y="533" type="curve"/>
      <point x="117" y="533"/>
      <point x="71" y="533"/>
      <point x="25" y="533" type="curve"/>
      <point x="25" y="423"/>
      <point x="25" y="533"/>
      <point x="25" y="423" type="curve"/>
      <point x="163" y="423"/>
      <point x="25" y="423"/>
      <point x="163" y="423" type="curve"/>
      <point x="163" y="533"/>
      <point x="163" y="423"/>
    </contour>
    <contour>
      <point x="394" y="802" type="curve"/>
      <point x="376" y="767"/>
      <point x="364" y="761"/>
      <point x="350" y="761" type="curve"/>
      <point x="325" y="761"/>
      <point x="313" y="767"/>
      <point x="295" y="781" type="curve" smooth="yes"/>
      <point x="269" y="801"/>
      <point x="256" y="809"/>
      <point x="227" y="809" type="curve"/>
      <point x="158" y="809"/>
      <point x="122" y="740"/>
      <point x="101" y="676" type="curve"/>
      <point x="206" y="615"/>
      <point x="101" y="677"/>
      <point x="206" y="615" type="curve"/>
      <point x="226" y="655"/>
      <point x="242" y="661"/>
      <point x="260" y="661" type="curve"/>
      <point x="280" y="661"/>
      <point x="290" y="655"/>
      <point x="304" y="643" type="curve" smooth="yes"/>
      <point x="334" y="619"/>
      <point x="350" y="608"/>
      <point x="385" y="608" type="curve"/>
      <point x="454" y="608"/>
      <point x="480" y="673"/>
      <point x="507" y="743" type="curve"/>
      <point x="394" y="802"/>
      <point x="507" y="742"/>
    </contour>
  </outline>
</glyph>
<glyph name="ydieresis" format="1">
  <advance width="605"/>
  <unicode hex="00FF"/>
  <outline>
    <contour>
      <point x="205" y="-188" type="curve"/>
      <point x="98" y="-190"/>
      <point x="205" y="-188"/>
      <point x="98" y="-190" type="curve"/>
      <point x="98" y="-300"/>
      <point x="98" y="-190"/>
      <point x="98" y="-300" type="curve"/>
      <point x="134" y="-300"/>
      <point x="169" y="-299"/>
      <point x="205" y="-299" type="curve"/>
      <point x="205" y="-188"/>
      <point x="205" y="-299"/>
    </contour>
    <contour>
      <point x="128" y="534" type="curve"/>
      <point x="92" y="534"/>
      <point x="55" y="533"/>
      <point x="19" y="533" type="curve"/>
      <point x="18" y="423"/>
      <point x="19" y="533"/>
      <point x="18" y="423" type="curve"/>
      <point x="128" y="424"/>
      <point x="18" y="423"/>
      <point x="128" y="424" type="curve"/>
      <point x="128" y="534"/>
      <point x="128" y="424"/>
    </contour>
    <contour>
      <point x="128" y="424" type="curve"/>
      <point x="265" y="423"/>
      <point x="128" y="424"/>
      <point x="265" y="423" type="curve"/>
      <point x="265" y="533"/>
      <point x="265" y="423"/>
      <point x="265" y="533" type="curve"/>
      <point x="219" y="533"/>
      <point x="174" y="534"/>
      <point x="128" y="534" type="curve"/>
      <point x="128" y="424"/>
      <point x="128" y="534"/>
    </contour>
    <contour>
      <point x="492" y="534" type="curve"/>
      <point x="446" y="534"/>
      <point x="400" y="533"/>
      <point x="354" y="533" type="curve"/>
      <point x="354" y="423"/>
      <point x="354" y="533"/>
      <point x="354" y="423" type="curve"/>
      <point x="492" y="424"/>
      <point x="354" y="423"/>
      <point x="492" y="424" type="curve"/>
      <point x="492" y="534"/>
      <point x="492" y="424"/>
    </contour>
    <contour>
      <point x="492" y="424" type="curve"/>
      <point x="596" y="423"/>
      <point x="492" y="424"/>
      <point x="596" y="423" type="curve"/>
      <point x="596" y="533"/>
      <point x="596" y="423"/>
      <point x="596" y="533" type="curve"/>
      <point x="561" y="533"/>
      <point x="526" y="534"/>
      <point x="492" y="534" type="curve"/>
      <point x="492" y="424"/>
      <point x="492" y="534"/>
    </contour>
    <contour>
      <point x="368" y="-24" type="curve"/>
      <point x="308" y="162"/>
      <point x="251" y="346"/>
      <point x="191" y="533" type="curve"/>
      <point x="45" y="533"/>
      <point x="191" y="533"/>
      <point x="45" y="533" type="curve"/>
      <point x="110" y="348"/>
      <point x="171" y="161"/>
      <point x="236" y="-24" type="curve"/>
      <point x="368" y="-24"/>
      <point x="236" y="-24"/>
    </contour>
    <contour>
      <point x="269" y="-300" type="curve"/>
      <point x="370" y="-22"/>
      <point x="472" y="255"/>
      <point x="573" y="533" type="curve"/>
      <point x="428" y="533"/>
      <point x="573" y="533"/>
      <point x="428" y="533" type="curve"/>
      <point x="326" y="255"/>
      <point x="224" y="-22"/>
      <point x="123" y="-300" type="curve"/>
      <point x="269" y="-300"/>
      <point x="123" y="-300"/>
    </contour>
    <contour>
      <point x="279" y="675" type="curve"/>
      <point x="279" y="723"/>
      <point x="248" y="747"/>
      <point x="204" y="747" type="curve"/>
      <point x="160" y="747"/>
      <point x="131" y="721"/>
      <point x="131" y="675" type="curve"/>
      <point x="279" y="675"/>
      <point x="131" y="675"/>
      <point x="279" y="675" type="curve"/>
      <point x="279" y="626"/>
      <point x="249" y="604"/>
      <point x="204" y="604" type="curve"/>
      <point x="160" y="604"/>
      <point x="131" y="628"/>
      <point x="131" y="675" type="curve"/>
      <point x="279" y="675"/>
      <point x="131" y="675"/>
    </contour>
    <contour>
      <point x="479" y="675" type="curve"/>
      <point x="479" y="723"/>
      <point x="448" y="747"/>
      <point x="404" y="747" type="curve"/>
      <point x="360" y="747"/>
      <point x="331" y="721"/>
      <point x="331" y="675" type="curve"/>
      <point x="479" y="675"/>
      <point x="331" y="675"/>
      <point x="479" y="675" type="curve"/>
      <point x="479" y="626"/>
      <point x="449" y="604"/>
      <point x="404" y="604" type="curve"/>
      <point x="360" y="604"/>
      <point x="331" y="628"/>
      <point x="331" y="675" type="curve"/>
      <point x="479" y="675"/>
      <point x="331" y="675"/>
    </contour>
  </outline>
</glyph>
<glyph name="edotaccent" format="1">
  <advance width="498"/>
  <unicode hex="0117"/>
  <outline>
    <contour>
      <point x="110" y="226" type="curve"/>
      <point x="208" y="226"/>
      <point x="306" y="226"/>
      <point x="404" y="226" type="curve"/>
      <point x="465" y="226"/>
      <point x="404" y="226"/>
      <point x="465" y="226" type="curve"/>
      <point x="465" y="274"/>
      <point x="465" y="226"/>
      <point x="465" y="274" type="curve"/>
      <point x="465" y="280"/>
      <point x="465" y="286"/>
      <point x="465" y="292" type="curve"/>
      <point x="465" y="442"/>
      <point x="398" y="538"/>
      <point x="260" y="538" type="curve"/>
      <point x="112" y="538"/>
      <point x="38" y="438"/>
      <point x="38" y="278" type="curve"/>
      <point x="38" y="106"/>
      <point x="117" y="-5"/>
      <point x="276" y="-5" type="curve"/>
      <point x="346" y="-5"/>
      <point x="390" y="22"/>
      <point x="443" y="73" type="curve"/>
      <point x="357" y="151"/>
      <point x="443" y="73"/>
      <point x="357" y="151" type="curve"/>
      <point x="333" y="125"/>
      <point x="311" y="111"/>
      <point x="276" y="111" type="curve"/>
      <point x="193" y="111"/>
      <point x="179" y="184"/>
      <point x="179" y="278" type="curve"/>
      <point x="179" y="358"/>
      <point x="184" y="423"/>
      <point x="254" y="423" type="curve"/>
      <point x="313" y="423"/>
      <point x="329" y="372"/>
      <point x="329" y="303" type="curve"/>
      <point x="329" y="293"/>
      <point x="329" y="284"/>
      <point x="329" y="274" type="curve"/>
      <point x="341" y="286"/>
      <point x="353" y="296"/>
      <point x="365" y="308" type="curve"/>
      <point x="376" y="319"/>
      <point x="393" y="318"/>
      <point x="404" y="330" type="curve"/>
      <point x="306" y="330"/>
      <point x="208" y="330"/>
      <point x="110" y="330" type="curve"/>
      <point x="110" y="220"/>
      <point x="110" y="336"/>
    </contour>
    <contour>
      <point x="339" y="680" type="curve"/>
      <point x="339" y="728"/>
      <point x="307" y="752"/>
      <point x="264" y="752" type="curve"/>
      <point x="220" y="752"/>
      <point x="191" y="726"/>
      <point x="191" y="680" type="curve"/>
      <point x="339" y="680"/>
      <point x="191" y="680"/>
      <point x="339" y="680" type="curve"/>
      <point x="339" y="631"/>
      <point x="308" y="609"/>
      <point x="264" y="609" type="curve"/>
      <point x="219" y="609"/>
      <point x="191" y="633"/>
      <point x="191" y="680" type="curve"/>
      <point x="339" y="680"/>
      <point x="191" y="680"/>
    </contour>
  </outline>
</glyph>
<glyph name="Gcommaaccent" format="1">
  <advance width="666"/>
  <unicode hex="0122"/>
  <outline>
    <contour>
      <point x="483" y="645" type="curve"/>
      <point x="483" y="505"/>
      <point x="483" y="645"/>
      <point x="483" y="505" type="curve"/>
      <point x="595" y="505"/>
      <point x="483" y="505"/>
      <point x="595" y="505" type="curve"/>
      <point x="595" y="645"/>
      <point x="595" y="505"/>
      <point x="595" y="645" type="curve"/>
      <point x="483" y="645"/>
      <point x="595" y="645"/>
    </contour>
    <contour>
      <point x="570" y="370" type="curve"/>
      <point x="515" y="370"/>
      <point x="460" y="370"/>
      <point x="405" y="370" type="curve"/>
      <point x="405" y="260"/>
      <point x="405" y="370"/>
      <point x="405" y="260" type="curve"/>
      <point x="460" y="260"/>
      <point x="515" y="260"/>
      <point x="570" y="260" type="curve"/>
      <point x="570" y="370"/>
      <point x="570" y="260"/>
    </contour>
    <contour>
      <point x="607" y="79" type="curve"/>
      <point x="607" y="176"/>
      <point x="607" y="273"/>
      <point x="607" y="370" type="curve"/>
      <point x="477" y="370"/>
      <point x="607" y="370"/>
      <point x="477" y="370" type="curve"/>
      <point x="477" y="273"/>
      <point x="477" y="176"/>
      <point x="477" y="79" type="curve"/>
      <point x="607" y="79"/>
      <point x="477" y="79"/>
    </contour>
    <contour>
      <point x="595" y="645" type="curve"/>
      <point x="521" y="702"/>
      <point x="449" y="727"/>
      <point x="356" y="727" type="curve"/>
      <point x="150" y="727"/>
      <point x="47" y="580"/>
      <point x="47" y="360" type="curve"/>
      <point x="47" y="139"/>
      <point x="156" y="-5"/>
      <point x="364" y="-5" type="curve"/>
      <point x="463" y="-5"/>
      <point x="525" y="24"/>
      <point x="607" y="79" type="curve"/>
      <point x="536" y="162"/>
      <point x="607" y="79"/>
      <point x="536" y="162" type="curve"/>
      <point x="479" y="124"/>
      <point x="432" y="111"/>
      <point x="364" y="111" type="curve"/>
      <point x="233" y="111"/>
      <point x="190" y="222"/>
      <point x="190" y="371" type="curve"/>
      <point x="190" y="508"/>
      <point x="234" y="612"/>
      <point x="356" y="612" type="curve"/>
      <point x="421" y="612"/>
      <point x="471" y="591"/>
      <point x="523" y="551" type="curve"/>
      <point x="595" y="645"/>
      <point x="523" y="551"/>
    </contour>
    <contour>
      <point x="263" y="-392" type="line"/>
      <point x="360" y="-392"/>
      <point x="424" y="-322"/>
      <point x="424" y="-215" type="curve"/>
      <point x="424" y="-126"/>
      <point x="390" y="-80"/>
      <point x="343" y="-80" type="curve"/>
      <point x="300" y="-80"/>
      <point x="270" y="-105"/>
      <point x="270" y="-152" type="curve"/>
      <point x="270" y="-190"/>
      <point x="291" y="-220"/>
      <point x="330" y="-220" type="curve"/>
      <point x="330" y="-247"/>
      <point x="328" y="-302"/>
      <point x="263" y="-314" type="curve"/>
    </contour>
  </outline>
</glyph>
<glyph name="imacron" format="1">
  <advance width="332"/>
  <unicode hex="012B"/>
  <outline>
    <contour>
      <point x="172" y="110" type="curve"/>
      <point x="35" y="110"/>
      <point x="172" y="110"/>
      <point x="35" y="110" type="curve"/>
      <point x="34" y="0"/>
      <point x="35" y="110"/>
      <point x="34" y="0" type="curve"/>
      <point x="80" y="0"/>
      <point x="126" y="0"/>
      <point x="172" y="0" type="curve"/>
      <point x="172" y="110"/>
      <point x="172" y="0"/>
    </contour>
    <contour>
      <point x="172" y="0" type="curve"/>
      <point x="215" y="0"/>
      <point x="258" y="0"/>
      <point x="302" y="0" type="curve"/>
      <point x="302" y="110"/>
      <point x="302" y="0"/>
      <point x="302" y="110" type="curve"/>
      <point x="172" y="110"/>
      <point x="302" y="110"/>
      <point x="172" y="110" type="curve"/>
      <point x="172" y="0"/>
      <point x="172" y="110"/>
    </contour>
    <contour>
      <point x="172" y="533" type="curve"/>
      <point x="126" y="533"/>
      <point x="80" y="533"/>
      <point x="35" y="533" type="curve"/>
      <point x="34" y="423"/>
      <point x="35" y="533"/>
      <point x="34" y="423" type="curve"/>
      <point x="172" y="423"/>
      <point x="34" y="423"/>
      <point x="172" y="423" type="curve"/>
      <point x="172" y="533"/>
      <point x="172" y="423"/>
    </contour>
    <contour>
      <point x="247" y="0" type="curve"/>
      <point x="247" y="178"/>
      <point x="247" y="355"/>
      <point x="247" y="533" type="curve"/>
      <point x="97" y="533"/>
      <point x="247" y="533"/>
      <point x="97" y="533" type="curve"/>
      <point x="97" y="355"/>
      <point x="97" y="178"/>
      <point x="97" y="0" type="curve"/>
      <point x="247" y="0"/>
      <point x="97" y="0"/>
    </contour>
    <contour>
      <point x="259" y="720" type="curve"/>
      <point x="203" y="720"/>
      <point x="146" y="720"/>
      <point x="90" y="720" type="curve"/>
      <point x="90" y="610"/>
      <point x="90" y="720"/>
      <point x="90" y="610" type="curve"/>
      <point x="146" y="610"/>
      <point x="203" y="610"/>
      <point x="259" y="610" type="curve"/>
      <point x="259" y="720"/>
      <point x="259" y="610"/>
    </contour>
  </outline>
</glyph>
<glyph name="dotlessi" format="1">
  <advance width="354"/>
  <unicode hex="0131"/>
  <outline>
    <contour>
      <point x="191" y="610" type="move" name="top"/>
    </contour>
    <contour>
      <point x="188" y="110" type="curve"/>
      <point x="51" y="110"/>
      <point x="188" y="110"/>
      <point x="51" y="110" type="curve"/>
      <point x="50" y="0"/>
      <point x="51" y="110"/>
      <point x="50" y="0" type="curve"/>
      <point x="96" y="0"/>
      <point x="142" y="0"/>
      <point x="188" y="0" type="curve"/>
      <point x="188" y="110"/>
      <point x="188" y="0"/>
    </contour>
    <contour>
      <point x="188" y="0" type="curve"/>
      <point x="231" y="0"/>
      <point x="274" y="0"/>
      <point x="318" y="0" type="curve"/>
      <point x="318" y="110"/>
      <point x="318" y="0"/>
      <point x="318" y="110" type="curve"/>
      <point x="188" y="110"/>
      <point x="318" y="110"/>
      <point x="188" y="110" type="curve"/>
      <point x="188" y="0"/>
      <point x="188" y="110"/>
    </contour>
    <contour>
      <point x="188" y="533" type="curve"/>
      <point x="142" y="533"/>
      <point x="96" y="533"/>
      <point x="51" y="533" type="curve"/>
      <point x="50" y="423"/>
      <point x="51" y="533"/>
      <point x="50" y="423" type="curve"/>
      <point x="188" y="423"/>
      <point x="50" y="423"/>
      <point x="188" y="423" type="curve"/>
      <point x="188" y="533"/>
      <point x="188" y="423"/>
    </contour>
    <contour>
      <point x="263" y="0" type="curve"/>
      <point x="263" y="178"/>
      <point x="263" y="355"/>
      <point x="263" y="533" type="curve"/>
      <point x="113" y="533"/>
      <point x="263" y="533"/>
      <point x="113" y="533" type="curve"/>
      <point x="113" y="355"/>
      <point x="113" y="178"/>
      <point x="113" y="0" type="curve"/>
      <point x="263" y="0"/>
      <point x="113" y="0"/>
    </contour>
  </outline>
</glyph>
<glyph name="Omacron" format="1">
  <advance width="670"/>
  <unicode hex="014C"/>
  <outline>
    <contour>
      <point x="190" y="360" type="curve"/>
      <point x="190" y="495"/>
      <point x="212" y="612"/>
      <point x="332" y="612" type="curve"/>
      <point x="447" y="612"/>
      <point x="480" y="498"/>
      <point x="480" y="363" type="curve"/>
      <point x="480" y="227"/>
      <point x="456" y="111"/>
      <point x="337" y="111" type="curve"/>
      <point x="220" y="111"/>
      <point x="190" y="224"/>
      <point x="190" y="360" type="curve"/>
      <point x="47" y="360"/>
      <point x="190" y="360"/>
      <point x="47" y="360" type="curve"/>
      <point x="47" y="151"/>
      <point x="140" y="-5"/>
      <point x="332" y="-5" type="curve"/>
      <point x="527" y="-5"/>
      <point x="623" y="152"/>
      <point x="623" y="363" type="curve"/>
      <point x="623" y="570"/>
      <point x="531" y="727"/>
      <point x="338" y="727" type="curve"/>
      <point x="144" y="727"/>
      <point x="47" y="570"/>
      <point x="47" y="360" type="curve"/>
      <point x="190" y="360"/>
      <point x="47" y="360"/>
    </contour>
    <contour>
      <point x="420" y="890" type="curve"/>
      <point x="364" y="890"/>
      <point x="307" y="890"/>
      <point x="251" y="890" type="curve"/>
      <point x="251" y="780"/>
      <point x="251" y="890"/>
      <point x="251" y="780" type="curve"/>
      <point x="307" y="780"/>
      <point x="364" y="780"/>
      <point x="420" y="780" type="curve"/>
      <point x="420" y="890"/>
      <point x="420" y="780"/>
    </contour>
  </outline>
</glyph>
<glyph name="tcaron" format="1">
  <advance width="367"/>
  <unicode hex="0165"/>
  <outline>
    <contour>
      <point x="12" y="421" type="curve"/>
      <point x="306" y="421" type="line"/>
      <point x="306" y="532"/>
      <point x="306" y="421"/>
      <point x="306" y="532" type="curve"/>
      <point x="12" y="532" type="line"/>
      <point x="12" y="421"/>
      <point x="12" y="532"/>
    </contour>
    <contour>
      <point x="262" y="125" type="curve"/>
      <point x="250" y="115"/>
      <point x="242" y="110"/>
      <point x="228" y="110" type="curve"/>
      <point x="197" y="110"/>
      <point x="199" y="140"/>
      <point x="199" y="175" type="curve"/>
      <point x="199" y="680" type="line"/>
      <point x="56" y="590"/>
      <point x="199" y="680"/>
      <point x="56" y="590" type="curve"/>
      <point x="56" y="170" type="line"/>
      <point x="56" y="60"/>
      <point x="106" y="-6"/>
      <point x="207" y="-6" type="curve"/>
      <point x="251" y="-6"/>
      <point x="281" y="8"/>
      <point x="320" y="31" type="curve"/>
      <point x="262" y="125"/>
      <point x="320" y="31"/>
    </contour>
    <contour>
      <point x="381" y="590" type="line"/>
      <point x="478" y="590"/>
      <point x="542" y="660"/>
      <point x="542" y="767" type="curve"/>
      <point x="542" y="856"/>
      <point x="508" y="902"/>
      <point x="461" y="902" type="curve"/>
      <point x="417" y="902"/>
      <point x="388" y="877"/>
      <point x="388" y="830" type="curve"/>
      <point x="388" y="792"/>
      <point x="409" y="762"/>
      <point x="448" y="762" type="curve"/>
      <point x="448" y="735"/>
      <point x="446" y="680"/>
      <point x="381" y="668" type="curve"/>
    </contour>
  </outline>
</glyph>
<glyph name="Ydieresis" format="1">
  <advance width="573"/>
  <unicode hex="0178"/>
  <outline>
    <contour>
      <point x="282" y="110" type="curve"/>
      <point x="145" y="110"/>
      <point x="282" y="110"/>
      <point x="145" y="110" type="curve"/>
      <point x="145" y="0"/>
      <point x="145" y="110"/>
      <point x="145" y="0" type="curve"/>
      <point x="190" y="0"/>
      <point x="236" y="0"/>
      <point x="282" y="0" type="curve"/>
      <point x="282" y="110"/>
      <point x="282" y="0"/>
    </contour>
    <contour>
      <point x="282" y="0" type="curve"/>
      <point x="328" y="0"/>
      <point x="374" y="0"/>
      <point x="419" y="0" type="curve"/>
      <point x="419" y="110"/>
      <point x="419" y="0"/>
      <point x="419" y="110" type="curve"/>
      <point x="282" y="110"/>
      <point x="419" y="110"/>
      <point x="282" y="110" type="curve"/>
      <point x="282" y="0"/>
      <point x="282" y="110"/>
    </contour>
    <contour>
      <point x="439" y="722" type="curve"/>
      <point x="397" y="722"/>
      <point x="354" y="722"/>
      <point x="312" y="722" type="curve"/>
      <point x="312" y="612"/>
      <point x="312" y="722"/>
      <point x="312" y="612" type="curve"/>
      <point x="439" y="612"/>
      <point x="312" y="612"/>
      <point x="439" y="612" type="curve"/>
      <point x="439" y="722"/>
      <point x="439" y="612"/>
    </contour>
    <contour>
      <point x="115" y="722" type="curve"/>
      <point x="82" y="722"/>
      <point x="48" y="722"/>
      <point x="15" y="722" type="curve"/>
      <point x="14" y="612"/>
      <point x="15" y="722"/>
      <point x="14" y="612" type="curve"/>
      <point x="115" y="612"/>
      <point x="14" y="612"/>
      <point x="115" y="612" type="curve"/>
      <point x="115" y="722"/>
      <point x="115" y="612"/>
    </contour>
    <contour>
      <point x="135" y="612" type="curve"/>
      <point x="262" y="612"/>
      <point x="135" y="612"/>
      <point x="262" y="612" type="curve"/>
      <point x="262" y="722"/>
      <point x="262" y="612"/>
      <point x="262" y="722" type="curve"/>
      <point x="220" y="722"/>
      <point x="177" y="722"/>
      <point x="135" y="722" type="curve"/>
      <point x="135" y="612"/>
      <point x="135" y="722"/>
    </contour>
    <contour>
      <point x="459" y="612" type="curve"/>
      <point x="566" y="612"/>
      <point x="459" y="612"/>
      <point x="566" y="612" type="curve"/>
      <point x="566" y="722"/>
      <point x="566" y="612"/>
      <point x="566" y="722" type="curve"/>
      <point x="531" y="722"/>
      <point x="495" y="722"/>
      <point x="459" y="722" type="curve"/>
      <point x="459" y="612"/>
      <point x="459" y="722"/>
    </contour>
    <contour>
      <point x="33" y="722" type="curve"/>
      <point x="92" y="594"/>
      <point x="147" y="469"/>
      <point x="204" y="337" type="curve"/>
      <point x="349" y="337"/>
      <point x="182" y="337"/>
      <point x="327" y="337" type="curve"/>
      <point x="278" y="470"/>
      <point x="231" y="591"/>
      <point x="178" y="722" type="curve"/>
      <point x="33" y="722"/>
      <point x="178" y="722"/>
    </contour>
    <contour>
      <point x="396" y="722" type="curve"/>
      <point x="337" y="589"/>
      <point x="287" y="469"/>
      <point x="227" y="337" type="curve"/>
      <point x="372" y="337"/>
      <point x="215" y="337"/>
      <point x="360" y="337" type="curve"/>
      <point x="421" y="468"/>
      <point x="479" y="594"/>
      <point x="541" y="722" type="curve"/>
      <point x="396" y="722"/>
      <point x="541" y="722"/>
    </contour>
    <contour>
      <point x="360" y="0" type="curve"/>
      <point x="360" y="115"/>
      <point x="360" y="222"/>
      <point x="360" y="337" type="curve"/>
      <point x="204" y="337"/>
      <point x="360" y="337"/>
      <point x="204" y="337" type="curve"/>
      <point x="204" y="222"/>
      <point x="204" y="115"/>
      <point x="204" y="0" type="curve"/>
      <point x="360" y="0"/>
      <point x="204" y="0"/>
    </contour>
    <contour>
      <point x="263" y="845" type="curve"/>
      <point x="263" y="893"/>
      <point x="232" y="917"/>
      <point x="188" y="917" type="curve"/>
      <point x="144" y="917"/>
      <point x="115" y="891"/>
      <point x="115" y="845" type="curve"/>
      <point x="263" y="845"/>
      <point x="115" y="845"/>
      <point x="263" y="845" type="curve"/>
      <point x="263" y="796"/>
      <point x="233" y="774"/>
      <point x="188" y="774" type="curve"/>
      <point x="144" y="774"/>
      <point x="115" y="798"/>
      <point x="115" y="845" type="curve"/>
      <point x="263" y="845"/>
      <point x="115" y="845"/>
    </contour>
    <contour>
      <point x="463" y="845" type="curve"/>
      <point x="463" y="893"/>
      <point x="432" y="917"/>
      <point x="388" y="917" type="curve"/>
      <point x="344" y="917"/>
      <point x="315" y="891"/>
      <point x="315" y="845" type="curve"/>
      <point x="463" y="845"/>
      <point x="315" y="845"/>
      <point x="463" y="845" type="curve"/>
      <point x="463" y="796"/>
      <point x="433" y="774"/>
      <point x="388" y="774" type="curve"/>
      <point x="344" y="774"/>
      <point x="315" y="798"/>
      <point x="315" y="845" type="curve"/>
      <point x="463" y="845"/>
      <point x="315" y="845"/>
    </contour>
  </outline>
</glyph>
<glyph name="scommaaccent" format="1">
  <advance width="446"/>
  <unicode hex="0219"/>
  <outline>
    <contour>
      <point x="48" y="47" type="curve"/>
      <point x="104" y="15"/>
      <point x="158" y="-5"/>
      <point x="218" y="-5" type="curve"/>
      <point x="333" y="-5"/>
      <point x="409" y="51"/>
      <point x="409" y="162" type="curve"/>
      <point x="408" y="259"/>
      <point x="337" y="293"/>
      <point x="242" y="327" type="curve"/>
      <point x="207" y="339"/>
      <point x="181" y="357"/>
      <point x="181" y="388" type="curve"/>
      <point x="181" y="407"/>
      <point x="194" y="423"/>
      <point x="219" y="423" type="curve"/>
      <point x="248" y="423"/>
      <point x="282" y="407"/>
      <point x="301" y="393" type="curve"/>
      <point x="366" y="493"/>
      <point x="301" y="393"/>
      <point x="366" y="493" type="curve"/>
      <point x="334" y="516"/>
      <point x="273" y="538"/>
      <point x="222" y="538" type="curve"/>
      <point x="118" y="538"/>
      <point x="51" y="487"/>
      <point x="51" y="388" type="curve"/>
      <point x="51" y="297"/>
      <point x="107" y="253"/>
      <point x="196" y="222" type="curve"/>
      <point x="237" y="208"/>
      <point x="272" y="191"/>
      <point x="272" y="153" type="curve"/>
      <point x="272" y="128"/>
      <point x="252" y="114"/>
      <point x="227" y="114" type="curve"/>
      <point x="187" y="114"/>
      <point x="155" y="126"/>
      <point x="120" y="146" type="curve"/>
      <point x="48" y="47"/>
      <point x="120" y="146"/>
    </contour>
    <contour>
      <point x="254" y="493" type="curve"/>
      <point x="254" y="361"/>
      <point x="254" y="493"/>
      <point x="254" y="361" type="curve"/>
      <point x="366" y="361"/>
      <point x="254" y="361"/>
      <point x="366" y="361" type="curve"/>
      <point x="366" y="493"/>
      <point x="366" y="361"/>
      <point x="366" y="493" type="curve"/>
      <point x="254" y="493"/>
      <point x="366" y="493"/>
    </contour>
    <contour>
      <point x="160" y="47" type="curve"/>
      <point x="160" y="183"/>
      <point x="160" y="47"/>
      <point x="160" y="183" type="curve"/>
      <point x="48" y="183"/>
      <point x="160" y="183"/>
      <point x="48" y="183" type="curve"/>
      <point x="48" y="47"/>
      <point x="48" y="183"/>
      <point x="48" y="47" type="curve"/>
      <point x="160" y="47"/>
      <point x="48" y="47"/>
    </contour>
    <contour>
      <point x="129" y="-389" type="line"/>
      <point x="226" y="-389"/>
      <point x="290" y="-319"/>
      <point x="290" y="-212" type="curve"/>
      <point x="290" y="-123"/>
      <point x="256" y="-77"/>
      <point x="209" y="-77" type="curve"/>
      <point x="165" y="-77"/>
      <point x="136" y="-102"/>
      <point x="136" y="-149" type="curve"/>
      <point x="136" y="-187"/>
      <point x="157" y="-217"/>
      <point x="196" y="-217" type="curve"/>
      <point x="196" y="-244"/>
      <point x="194" y="-299"/>
      <point x="129" y="-311" type="curve"/>
    </contour>
  </outline>
</glyph>
<glyph name="breve" format="1">
  <advance width="326"/>
  <unicode hex="02D8"/>
  <outline>
    <contour>
      <point x="121" y="537" type="move" name="_top"/>
    </contour>
    <contour>
      <point x="156" y="694" type="curve"/>
      <point x="156" y="666"/>
      <point x="150" y="641"/>
      <point x="122" y="641" type="curve"/>
      <point x="93" y="641"/>
      <point x="87" y="664"/>
      <point x="87" y="695" type="curve"/>
      <point x="-40" y="695"/>
      <point x="87" y="695"/>
      <point x="-40" y="695" type="curve"/>
      <point x="-40" y="598"/>
      <point x="19" y="540"/>
      <point x="118" y="540" type="curve"/>
      <point x="218" y="540"/>
      <point x="283" y="595"/>
      <point x="283" y="694" type="curve"/>
      <point x="156" y="694"/>
      <point x="283" y="694"/>
    </contour>
  </outline>
</glyph>
<glyph name="tilde" format="1">
  <advance width="503"/>
  <unicode hex="02DC"/>
  <outline>
    <contour>
      <point x="165" y="531" type="move" name="_top"/>
    </contour>
    <contour>
      <point x="261" y="723" type="curve"/>
      <point x="244" y="688"/>
      <point x="231" y="682"/>
      <point x="217" y="682" type="curve"/>
      <point x="192" y="682"/>
      <point x="180" y="688"/>
      <point x="162" y="702" type="curve" smooth="yes"/>
      <point x="136" y="722"/>
      <point x="123" y="730"/>
      <point x="94" y="730" type="curve"/>
      <point x="25" y="730"/>
      <point x="-11" y="661"/>
      <point x="-32" y="597" type="curve"/>
      <point x="73" y="536"/>
      <point x="-32" y="598"/>
      <point x="73" y="536" type="curve"/>
      <point x="93" y="576"/>
      <point x="109" y="582"/>
      <point x="127" y="582" type="curve"/>
      <point x="147" y="582"/>
      <point x="157" y="576"/>
      <point x="171" y="564" type="curve" smooth="yes"/>
      <point x="201" y="540"/>
      <point x="217" y="529"/>
      <point x="252" y="529" type="curve"/>
      <point x="321" y="529"/>
      <point x="347" y="594"/>
      <point x="374" y="664" type="curve"/>
      <point x="261" y="723"/>
      <point x="374" y="663"/>
    </contour>
  </outline>
</glyph>
<glyph name="dvUU" format="1">
  <advance width="711"/>
  <unicode hex="090A"/>
  <outline>
    <contour>
      <point x="480" y="121" type="curve"/>
      <point x="480" y="5" type="line"/>
      <point x="596" y="5"/>
      <point x="676" y="81"/>
      <point x="676" y="196" type="curve"/>
      <point x="676" y="311"/>
      <point x="597" y="388"/>
      <point x="481" y="388" type="curve"/>
      <point x="378" y="388"/>
      <point x="327" y="307"/>
      <point x="283" y="210" type="curve"/>
      <point x="394" y="156" type="line"/>
      <point x="419" y="206"/>
      <point x="438" y="256"/>
      <point x="493" y="256" type="curve"/>
      <point x="525" y="256"/>
      <point x="540" y="228"/>
      <point x="540" y="193" type="curve"/>
      <point x="540" y="152"/>
      <point x="518" y="121"/>
    </contour>
    <component base="dvU"/>
    <component base="dvTopbar" xOffset="223"/>
  </outline>
</glyph>
<glyph name="dvKA" format="1">
  <advance width="740"/>
  <unicode hex="0915"/>
  <outline>
    <contour>
      <point x="447" y="0" type="move" name="blwm.virama"/>
    </contour>
    <contour>
      <point x="447" y="720" type="move" name="abvm.e"/>
    </contour>
    <contour>
      <point x="447" y="0" type="move" name="blwm.u"/>
    </contour>
    <component base="dvTopbar" xScale="1.47532442779" xOffset="10"/>
    <component base="dvK_left"/>
    <component base="dvStemright" xOffset="214"/>
    <component base="dvKA_right"/>
  </outline>
</glyph>
<glyph name="dvLLA" format="1">
  <advance width="693"/>
  <unicode hex="0933"/>
  <outline>
    <contour>
      <point x="573" y="-11" type="move" name="blwm.virama"/>
    </contour>
    <contour>
      <point x="544" y="720" type="move" name="abvm.e"/>
    </contour>
    <contour>
      <point x="573" y="-82" type="move" name="blwm.u"/>
    </contour>
    <component base="dvLL"/>
    <component base="dvStem_short" xOffset="265" yOffset="-23"/>
  </outline>
</glyph>
<glyph name="dvHA" format="1">
  <advance width="488"/>
  <unicode hex="0939"/>
  <outline>
    <contour>
      <point x="295" y="-142" type="move" name="blwm.virama"/>
    </contour>
    <contour>
      <point x="360" y="720" type="move" name="abvm.e"/>
    </contour>
    <contour>
      <point x="347" y="-224" type="move" name="blwm.u"/>
    </contour>
    <contour>
      <point x="243" y="339" type="curve"/>
      <point x="215" y="359"/>
      <point x="185" y="369"/>
      <point x="185" y="399" type="curve"/>
      <point x="185" y="423"/>
      <point x="204" y="436"/>
      <point x="229" y="436" type="curve"/>
      <point x="272" y="436"/>
      <point x="315" y="436"/>
      <point x="359" y="436" type="curve"/>
      <point x="216" y="547"/>
      <point x="359" y="436"/>
      <point x="216" y="547" type="curve"/>
      <point x="211" y="547"/>
      <point x="205" y="547"/>
      <point x="200" y="547" type="curve"/>
      <point x="109" y="547"/>
      <point x="42" y="496"/>
      <point x="42" y="410" type="curve"/>
      <point x="42" y="339"/>
      <point x="80" y="301"/>
      <point x="139" y="261" type="curve"/>
      <point x="243" y="339"/>
      <point x="139" y="261"/>
    </contour>
    <contour>
      <point x="216" y="666" type="curve"/>
      <point x="216" y="626"/>
      <point x="216" y="587"/>
      <point x="216" y="547" type="curve"/>
      <point x="359" y="436"/>
      <point x="216" y="547"/>
      <point x="359" y="436" type="curve"/>
      <point x="359" y="513"/>
      <point x="359" y="589"/>
      <point x="359" y="666" type="curve"/>
      <point x="216" y="666"/>
      <point x="359" y="666"/>
    </contour>
    <contour>
      <point x="463" y="178" type="line"/>
      <point x="463" y="291"/>
      <point x="381" y="359"/>
      <point x="273" y="359" type="curve"/>
      <point x="141" y="359"/>
      <point x="53" y="268"/>
      <point x="53" y="132" type="curve"/>
      <point x="53" y="-7"/>
      <point x="153" y="-99"/>
      <point x="297" y="-99" type="curve"/>
      <point x="297" y="13" type="line"/>
      <point x="232" y="13"/>
      <point x="194" y="64"/>
      <point x="194" y="132" type="curve"/>
      <point x="194" y="196"/>
      <point x="221" y="248"/>
      <point x="273" y="248" type="curve"/>
      <point x="317" y="248"/>
      <point x="344" y="207"/>
      <point x="344" y="155" type="curve"/>
    </contour>
    <component base="dvTopbar"/>
  </outline>
</glyph>
<glyph name="dvmII" format="1">
  <advance width="236"/>
  <unicode hex="0940"/>
  <outline>
    <contour>
      <point x="172" y="656" type="line"/>
      <point x="156" y="782" type="line" smooth="yes"/>
      <point x="136" y="937"/>
      <point x="78" y="1015"/>
      <point x="-32" y="1015" type="curve"/>
      <point x="-139" y="1015"/>
      <point x="-185" y="888"/>
      <point x="-196" y="714" type="curve"/>
      <point x="-81" y="658" type="line"/>
      <point x="-72" y="769"/>
      <point x="-70" y="898"/>
      <point x="-26" y="898" type="curve"/>
      <point x="7" y="898"/>
      <point x="20" y="857"/>
      <point x="31" y="776" type="curve" smooth="yes"/>
      <point x="44" y="680" type="line"/>
    </contour>
    <component base="dvmAA" xOffset="-20"/>
  </outline>
</glyph>
<glyph name="dvmU" format="1">
  <advance width="0"/>
  <unicode hex="0941"/>
  <outline>
    <contour>
      <point x="-53" y="0" type="move" name="_blwm.u"/>
    </contour>
    <contour>
      <point x="-158" y="-62" type="line"/>
      <point x="-120" y="-62"/>
      <point x="-98" y="-93"/>
      <point x="-98" y="-134" type="curve"/>
      <point x="-98" y="-169"/>
      <point x="-113" y="-197"/>
      <point x="-145" y="-197" type="curve"/>
      <point x="-200" y="-197"/>
      <point x="-219" y="-147"/>
      <point x="-244" y="-97" type="curve"/>
      <point x="-355" y="-151" type="line"/>
      <point x="-311" y="-248"/>
      <point x="-260" y="-329"/>
      <point x="-157" y="-329" type="curve"/>
      <point x="-41" y="-329"/>
      <point x="38" y="-252"/>
      <point x="38" y="-137" type="curve"/>
      <point x="38" y="-22"/>
      <point x="-42" y="54"/>
      <point x="-158" y="54" type="curve"/>
    </contour>
  </outline>
</glyph>
<glyph name="dvmvR" format="1">
  <advance width="0"/>
  <unicode hex="0943"/>
  <outline>
    <contour>
      <point x="-51" y="8" type="move" name="_blwm.u"/>
    </contour>
    <contour>
      <point x="-42" y="-153" type="line"/>
      <point x="-90" y="-153"/>
      <point x="-119" y="-117"/>
      <point x="-119" y="-69" type="curve"/>
      <point x="-119" y="-28"/>
      <point x="-100" y="6"/>
      <point x="-64" y="6" type="curve"/>
      <point x="-64" y="117" type="line"/>
      <point x="-177" y="117"/>
      <point x="-262" y="47"/>
      <point x="-262" y="-64" type="curve"/>
      <point x="-262" y="-186"/>
      <point x="-169" y="-263"/>
      <point x="-42" y="-263" type="curve"/>
    </contour>
  </outline>
</glyph>
<glyph name="dvmEcandra" format="1">
  <advance width="0"/>
  <unicode hex="0945"/>
  <outline>
    <contour>
      <point x="-42" y="740" type="move" name="_abvm.e"/>
    </contour>
    <contour>
      <point x="-64" y="1010" type="curve"/>
      <point x="-64" y="963"/>
      <point x="-74" y="923"/>
      <point x="-115" y="923" type="curve"/>
      <point x="-157" y="923"/>
      <point x="-168" y="962"/>
      <point x="-168" y="1010" type="curve"/>
      <point x="-311" y="1010"/>
      <point x="-168" y="1010"/>
      <point x="-311" y="1010" type="curve"/>
      <point x="-311" y="890"/>
      <point x="-239" y="813"/>
      <point x="-121" y="813" type="curve"/>
      <point x="2" y="813"/>
      <point x="79" y="887"/>
      <point x="79" y="1010" type="curve"/>
      <point x="-64" y="1010"/>
      <point x="79" y="1010"/>
    </contour>
  </outline>
</glyph>
<glyph name="dvmE" format="1">
  <advance width="0"/>
  <unicode hex="0947"/>
  <outline>
    <contour>
      <point x="-36" y="691" type="move" name="_abvm.e"/>
    </contour>
    <contour>
      <point x="-398" y="873" type="line"/>
      <point x="-374" y="883"/>
      <point x="-352" y="891"/>
      <point x="-330" y="891" type="curve"/>
      <point x="-233" y="891"/>
      <point x="-209" y="761"/>
      <point x="-166" y="644" type="curve"/>
      <point x="-36" y="684" type="line"/>
      <point x="-97" y="851"/>
      <point x="-140" y="1012"/>
      <point x="-311" y="1012" type="curve"/>
      <point x="-361" y="1012"/>
      <point x="-409" y="999"/>
      <point x="-454" y="976" type="curve"/>
    </contour>
  </outline>
</glyph>
<glyph name="dvmAI" format="1">
  <advance width="0"/>
  <unicode hex="0948"/>
  <outline>
    <contour>
      <point x="-27" y="725" type="move" name="_abvm.e"/>
    </contour>
    <contour>
      <point x="-322" y="784" type="line"/>
      <point x="-313" y="792"/>
      <point x="-302" y="797"/>
      <point x="-291" y="797" type="curve"/>
      <point x="-220" y="797"/>
      <point x="-183" y="733"/>
      <point x="-156" y="684" type="curve"/>
      <point x="-32" y="712" type="line"/>
      <point x="-89" y="822"/>
      <point x="-149" y="918"/>
      <point x="-278" y="918" type="curve"/>
      <point x="-320" y="918"/>
      <point x="-361" y="904"/>
      <point x="-396" y="877" type="curve"/>
    </contour>
    <contour>
      <point x="-289" y="926" type="line"/>
      <point x="-278" y="933"/>
      <point x="-267" y="939"/>
      <point x="-253" y="939" type="curve"/>
      <point x="-145" y="939"/>
      <point x="-179" y="777"/>
      <point x="-156" y="684" type="curve"/>
      <point x="-32" y="712" type="line"/>
      <point x="-70" y="887"/>
      <point x="-86" y="1060"/>
      <point x="-247" y="1060" type="curve"/>
      <point x="-289" y="1060"/>
      <point x="-327" y="1047"/>
      <point x="-361" y="1021" type="curve"/>
    </contour>
  </outline>
</glyph>
<glyph name="dvDDHxA" format="1">
  <advance width="520"/>
  <unicode hex="095D"/>
  <outline>
    <contour>
      <point x="347" y="-316" type="move" name="blwm.virama"/>
    </contour>
    <contour>
      <point x="390" y="710" type="move" name="abvm.e"/>
    </contour>
    <contour>
      <point x="361" y="-385" type="move" name="blwm.u"/>
    </contour>
    <component base="dvTopbar" xScale="1.06006707779" xOffset="1"/>
    <component base="dvAnusvara" xOffset="400" yOffset="-1101"/>
    <component base="dvDDHA_base"/>
  </outline>
</glyph>
<glyph name="trademark" format="1">
  <advance width="809"/>
  <unicode hex="2122"/>
  <outline>
    <contour>
      <point x="44" y="675" type="curve"/>
      <point x="44" y="636"/>
      <point x="44" y="596"/>
      <point x="44" y="556" type="curve"/>
      <point x="148" y="556"/>
      <point x="44" y="556"/>
      <point x="148" y="556" type="curve"/>
      <point x="148" y="566"/>
      <point x="148" y="577"/>
      <point x="148" y="587" type="curve"/>
      <point x="44" y="675"/>
      <point x="148" y="587"/>
    </contour>
    <contour>
      <point x="283" y="587" type="curve"/>
      <point x="283" y="577"/>
      <point x="283" y="566"/>
      <point x="283" y="556" type="curve"/>
      <point x="387" y="556"/>
      <point x="283" y="556"/>
      <point x="387" y="556" type="curve"/>
      <point x="387" y="596"/>
      <point x="387" y="636"/>
      <point x="387" y="675" type="curve"/>
      <point x="283" y="587"/>
      <point x="387" y="675"/>
    </contour>
    <contour>
      <point x="159" y="252" type="curve"/>
      <point x="201" y="252"/>
      <point x="252" y="252"/>
      <point x="294" y="252" type="curve"/>
      <point x="294" y="341"/>
      <point x="294" y="252"/>
      <point x="294" y="341" type="curve"/>
      <point x="290" y="341"/>
      <point x="277" y="341"/>
      <point x="273" y="341" type="curve"/>
      <point x="159" y="252"/>
      <point x="273" y="341"/>
    </contour>
    <contour>
      <point x="273" y="341" type="curve"/>
      <point x="231" y="341"/>
      <point x="179" y="341"/>
      <point x="137" y="341" type="curve"/>
      <point x="137" y="252"/>
      <point x="137" y="341"/>
      <point x="137" y="252" type="curve"/>
      <point x="141" y="252"/>
      <point x="154" y="252"/>
      <point x="159" y="252" type="curve"/>
      <point x="273" y="341"/>
      <point x="159" y="252"/>
    </contour>
    <contour>
      <point x="273" y="341" type="curve"/>
      <point x="273" y="452"/>
      <point x="273" y="564"/>
      <point x="273" y="675" type="curve"/>
      <point x="159" y="587"/>
      <point x="273" y="675"/>
      <point x="159" y="587" type="curve"/>
      <point x="159" y="475"/>
      <point x="159" y="364"/>
      <point x="159" y="252" type="curve"/>
      <point x="273" y="341"/>
      <point x="159" y="252"/>
    </contour>
    <contour>
      <point x="148" y="587" type="curve"/>
      <point x="191" y="587"/>
      <point x="240" y="587"/>
      <point x="283" y="587" type="curve"/>
      <point x="387" y="675"/>
      <point x="283" y="587"/>
      <point x="387" y="675" type="curve"/>
      <point x="274" y="675"/>
      <point x="156" y="675"/>
      <point x="44" y="675" type="curve"/>
      <point x="148" y="587"/>
      <point x="44" y="675"/>
    </contour>
    <contour>
      <point x="625" y="252" type="curve"/>
      <point x="665" y="252"/>
      <point x="710" y="252"/>
      <point x="751" y="252" type="curve"/>
      <point x="751" y="341"/>
      <point x="751" y="252"/>
      <point x="751" y="341" type="curve"/>
      <point x="743" y="341"/>
      <point x="731" y="341"/>
      <point x="724" y="341" type="curve"/>
      <point x="625" y="252"/>
      <point x="724" y="341"/>
    </contour>
    <contour>
      <point x="724" y="341" type="curve"/>
      <point x="684" y="341"/>
      <point x="648" y="341"/>
      <point x="609" y="341" type="curve"/>
      <point x="609" y="252"/>
      <point x="609" y="341"/>
      <point x="609" y="252" type="curve"/>
      <point x="615" y="252"/>
      <point x="619" y="252"/>
      <point x="625" y="252" type="curve"/>
      <point x="724" y="341"/>
      <point x="625" y="252"/>
    </contour>
    <contour>
      <point x="391" y="341" type="curve"/>
      <point x="385" y="341"/>
      <point x="369" y="341"/>
      <point x="362" y="341" type="curve"/>
      <point x="362" y="252"/>
      <point x="362" y="341"/>
      <point x="362" y="252" type="curve"/>
      <point x="402" y="252"/>
      <point x="450" y="252"/>
      <point x="490" y="252" type="curve"/>
      <point x="391" y="341"/>
      <point x="490" y="252"/>
    </contour>
    <contour>
      <point x="528" y="675" type="curve"/>
      <point x="488" y="675"/>
      <point x="442" y="675"/>
      <point x="402" y="675" type="curve"/>
      <point x="402" y="587"/>
      <point x="402" y="675"/>
      <point x="402" y="587" type="curve"/>
      <point x="414" y="587"/>
      <point x="432" y="587"/>
      <point x="445" y="587" type="curve"/>
      <point x="528" y="675"/>
      <point x="445" y="587"/>
    </contour>
    <contour>
      <point x="665" y="587" type="curve"/>
      <point x="680" y="587"/>
      <point x="695" y="587"/>
      <point x="710" y="587" type="curve"/>
      <point x="710" y="675"/>
      <point x="710" y="587"/>
      <point x="710" y="675" type="curve"/>
      <point x="669" y="675"/>
      <point x="628" y="675"/>
      <point x="587" y="675" type="curve"/>
      <point x="665" y="587"/>
      <point x="587" y="675"/>
    </contour>
    <contour>
      <point x="490" y="252" type="curve"/>
      <point x="497" y="252"/>
      <point x="500" y="252"/>
      <point x="506" y="252" type="curve"/>
      <point x="506" y="341"/>
      <point x="506" y="252"/>
      <point x="506" y="341" type="curve"/>
      <point x="467" y="341"/>
      <point x="431" y="341"/>
      <point x="391" y="341" type="curve"/>
      <point x="490" y="252"/>
      <point x="391" y="341"/>
    </contour>
    <contour>
      <point x="724" y="341" type="curve"/>
      <point x="684" y="630" type="line"/>
      <point x="580" y="630"/>
      <point x="684" y="630"/>
      <point x="580" y="630" type="curve"/>
      <point x="595" y="504"/>
      <point x="609" y="378"/>
      <point x="625" y="252" type="curve"/>
      <point x="724" y="341"/>
      <point x="625" y="252"/>
    </contour>
    <contour>
      <point x="490" y="252" type="curve"/>
      <point x="505" y="378"/>
      <point x="518" y="504"/>
      <point x="533" y="630" type="curve"/>
      <point x="429" y="630"/>
      <point x="533" y="630"/>
      <point x="429" y="630" type="curve"/>
      <point x="417" y="534"/>
      <point x="403" y="437"/>
      <point x="391" y="341" type="curve"/>
      <point x="490" y="252"/>
      <point x="391" y="341"/>
    </contour>
    <contour>
      <point x="591" y="288" type="curve"/>
      <point x="565" y="417"/>
      <point x="554" y="546"/>
      <point x="528" y="675" type="curve"/>
      <point x="445" y="587"/>
      <point x="528" y="675"/>
      <point x="445" y="587" type="curve"/>
      <point x="464" y="488"/>
      <point x="506" y="387"/>
      <point x="526" y="288" type="curve"/>
      <point x="640" y="288"/>
      <point x="477" y="288"/>
    </contour>
    <contour>
      <point x="591" y="288" type="curve"/>
      <point x="610" y="387"/>
      <point x="647" y="488"/>
      <point x="665" y="587" type="curve"/>
      <point x="587" y="675"/>
      <point x="665" y="587"/>
      <point x="587" y="675" type="curve"/>
      <point x="562" y="545"/>
      <point x="552" y="418"/>
      <point x="526" y="288" type="curve"/>
      <point x="646" y="288"/>
      <point x="471" y="288"/>
    </contour>
  </outline>
</glyph>
<glyph name="partialdiff" format="1">
  <advance width="498"/>
  <unicode hex="2202"/>
  <outline>
    <contour>
      <point x="368" y="231" type="curve"/>
      <point x="362" y="297"/>
      <point x="325" y="354"/>
      <point x="243" y="354" type="curve"/>
      <point x="188" y="354"/>
      <point x="163" y="300"/>
      <point x="163" y="236" type="curve"/>
      <point x="163" y="169"/>
      <point x="174" y="105"/>
      <point x="242" y="106" type="curve"/>
      <point x="319" y="106"/>
      <point x="334" y="262"/>
      <point x="334" y="412" type="curve"/>
      <point x="334" y="515"/>
      <point x="331" y="617"/>
      <point x="247" y="617" type="curve"/>
      <point x="222" y="617"/>
      <point x="203" y="602"/>
      <point x="187" y="585" type="curve"/>
      <point x="113" y="660"/>
      <point x="187" y="585"/>
      <point x="113" y="660" type="curve"/>
      <point x="160" y="711"/>
      <point x="200" y="728"/>
      <point x="254" y="728" type="curve"/>
      <point x="406" y="728"/>
      <point x="458" y="584"/>
      <point x="458" y="412" type="curve"/>
      <point x="458" y="191"/>
      <point x="422" y="-5"/>
      <point x="232" y="-5" type="curve"/>
      <point x="105" y="-5"/>
      <point x="30" y="88"/>
      <point x="30" y="220" type="curve"/>
      <point x="30" y="358"/>
      <point x="104" y="459"/>
      <point x="236" y="459" type="curve"/>
      <point x="353" y="459"/>
      <point x="419" y="371"/>
      <point x="428" y="248" type="curve"/>
      <point x="362" y="229"/>
      <point x="434" y="250"/>
    </contour>
  </outline>
</glyph>
<glyph name="OE" format="1">
  <advance width="860"/>
  <outline>
    <contour>
      <point x="554" y="654" type="curve"/>
      <point x="497" y="696"/>
      <point x="431" y="727"/>
      <point x="354" y="727" type="curve"/>
      <point x="146" y="727"/>
      <point x="47" y="571"/>
      <point x="47" y="345" type="curve"/>
      <point x="47" y="138"/>
      <point x="140" y="-5"/>
      <point x="332" y="-5" type="curve"/>
      <point x="435" y="-5"/>
      <point x="505" y="29"/>
      <point x="566" y="99" type="curve"/>
      <point x="483" y="181"/>
      <point x="566" y="99"/>
      <point x="483" y="181" type="curve"/>
      <point x="439" y="138"/>
      <point x="401" y="110"/>
      <point x="339" y="110" type="curve"/>
      <point x="222" y="110"/>
      <point x="190" y="216"/>
      <point x="190" y="350" type="curve"/>
      <point x="190" y="496"/>
      <point x="221" y="612"/>
      <point x="347" y="612" type="curve"/>
      <point x="397" y="612"/>
      <point x="440" y="593"/>
      <point x="476" y="566" type="curve"/>
      <point x="554" y="654"/>
      <point x="476" y="566"/>
    </contour>
    <contour>
      <point x="823" y="55" type="curve"/>
      <point x="823" y="175"/>
      <point x="823" y="55"/>
      <point x="823" y="175" type="curve"/>
      <point x="711" y="175"/>
      <point x="823" y="175"/>
      <point x="711" y="175" type="curve"/>
      <point x="711" y="55"/>
      <point x="711" y="175"/>
      <point x="711" y="55" type="curve"/>
      <point x="823" y="55"/>
      <point x="711" y="55"/>
    </contour>
    <contour>
      <point x="686" y="667" type="curve"/>
      <point x="686" y="547"/>
      <point x="686" y="667"/>
      <point x="686" y="547" type="curve"/>
      <point x="798" y="547"/>
      <point x="686" y="547"/>
      <point x="798" y="547" type="curve"/>
      <point x="798" y="667"/>
      <point x="798" y="547"/>
      <point x="798" y="667" type="curve"/>
      <point x="686" y="667"/>
      <point x="798" y="667"/>
    </contour>
    <contour>
      <point x="502" y="110" type="curve"/>
      <point x="365" y="110"/>
      <point x="502" y="110"/>
      <point x="365" y="110" type="curve"/>
      <point x="365" y="0"/>
      <point x="365" y="110"/>
      <point x="365" y="0" type="curve"/>
      <point x="411" y="0"/>
      <point x="457" y="0"/>
      <point x="502" y="0" type="curve"/>
      <point x="502" y="110"/>
      <point x="502" y="0"/>
    </contour>
    <contour>
      <point x="502" y="722" type="curve"/>
      <point x="457" y="722"/>
      <point x="411" y="722"/>
      <point x="365" y="722" type="curve"/>
      <point x="365" y="612"/>
      <point x="365" y="722"/>
      <point x="365" y="612" type="curve"/>
      <point x="502" y="612"/>
      <point x="365" y="612"/>
      <point x="502" y="612" type="curve"/>
      <point x="502" y="722"/>
      <point x="502" y="612"/>
    </contour>
    <contour>
      <point x="505" y="317" type="curve"/>
      <point x="586" y="317"/>
      <point x="669" y="317"/>
      <point x="751" y="317" type="curve"/>
      <point x="751" y="428"/>
      <point x="751" y="317"/>
      <point x="751" y="428" type="curve"/>
      <point x="669" y="428"/>
      <point x="586" y="428"/>
      <point x="505" y="428" type="curve"/>
      <point x="505" y="317"/>
      <point x="505" y="428"/>
    </contour>
    <contour>
      <point x="493" y="612" type="curve"/>
      <point x="595" y="612"/>
      <point x="696" y="612"/>
      <point x="798" y="612" type="curve"/>
      <point x="798" y="722"/>
      <point x="798" y="612"/>
      <point x="798" y="722" type="curve"/>
      <point x="696" y="722"/>
      <point x="595" y="722"/>
      <point x="493" y="722" type="curve"/>
      <point x="493" y="612"/>
      <point x="493" y="722"/>
    </contour>
    <contour>
      <point x="573" y="0" type="curve"/>
      <point x="573" y="722" type="line"/>
      <point x="430" y="722"/>
      <point x="573" y="722"/>
      <point x="430" y="722" type="curve"/>
      <point x="430" y="481"/>
      <point x="430" y="241"/>
      <point x="430" y="0" type="curve"/>
      <point x="573" y="0"/>
      <point x="430" y="0"/>
    </contour>
    <contour>
      <point x="493" y="0" type="curve"/>
      <point x="603" y="0"/>
      <point x="713" y="0"/>
      <point x="823" y="0" type="curve"/>
      <point x="823" y="110"/>
      <point x="823" y="0"/>
      <point x="823" y="110" type="curve"/>
      <point x="713" y="110"/>
      <point x="603" y="110"/>
      <point x="493" y="110" type="curve"/>
      <point x="493" y="0"/>
      <point x="493" y="110"/>
    </contour>
  </outline>
</glyph>
<glyph name="bulletoperator" format="1">
  <advance width="381"/>
  <outline>
    <contour>
      <point x="338" y="439" type="curve"/>
      <point x="338" y="535"/>
      <point x="275" y="583"/>
      <point x="188" y="583" type="curve"/>
      <point x="100" y="583"/>
      <point x="42" y="531"/>
      <point x="42" y="439" type="curve"/>
      <point x="338" y="439"/>
      <point x="42" y="439"/>
      <point x="338" y="439" type="curve"/>
      <point x="338" y="341"/>
      <point x="277" y="297"/>
      <point x="188" y="297" type="curve"/>
      <point x="99" y="297"/>
      <point x="42" y="345"/>
      <point x="42" y="439" type="curve"/>
      <point x="338" y="439"/>
      <point x="42" y="439"/>
    </contour>
  </outline>
</glyph>
<glyph name="dagger" format="1">
  <advance width="582"/>
  <outline>
    <contour>
      <point x="30" y="411" type="curve"/>
      <point x="551" y="411" type="line"/>
      <point x="551" y="532"/>
      <point x="551" y="411"/>
      <point x="551" y="532" type="curve"/>
      <point x="30" y="532" type="line"/>
      <point x="30" y="411"/>
      <point x="30" y="532"/>
    </contour>
    <contour>
      <point x="357" y="-301" type="curve"/>
      <point x="357" y="750" type="line"/>
      <point x="214" y="750"/>
      <point x="367" y="750"/>
      <point x="224" y="750" type="curve"/>
      <point x="224" y="-301" type="line"/>
      <point x="367" y="-301"/>
      <point x="214" y="-301"/>
    </contour>
  </outline>
</glyph>
<glyph name="dvA_base" format="1">
  <advance width="500"/>
  <outline>
    <contour>
      <point x="133" y="566" type="curve"/>
      <point x="158" y="588"/>
      <point x="178" y="604"/>
      <point x="211" y="604" type="curve"/>
      <point x="244" y="604"/>
      <point x="260" y="577"/>
      <point x="259" y="540" type="curve"/>
      <point x="259" y="494"/>
      <point x="227" y="466"/>
      <point x="180" y="466" type="curve"/>
      <point x="180" y="429"/>
      <point x="180" y="404"/>
      <point x="180" y="367" type="curve"/>
      <point x="309" y="367"/>
      <point x="402" y="430"/>
      <point x="402" y="551" type="curve"/>
      <point x="402" y="659"/>
      <point x="335" y="727"/>
      <point x="227" y="727" type="curve"/>
      <point x="154" y="727"/>
      <point x="104" y="707"/>
      <point x="49" y="660" type="curve"/>
      <point x="80" y="625"/>
      <point x="102" y="601"/>
    </contour>
    <contour>
      <point x="32" y="151" type="curve"/>
      <point x="79" y="88"/>
      <point x="133" y="60"/>
      <point x="212" y="60" type="curve"/>
      <point x="336" y="56"/>
      <point x="418" y="131"/>
      <point x="417" y="254" type="curve"/>
      <point x="415" y="381"/>
      <point x="316" y="442"/>
      <point x="180" y="442" type="curve"/>
      <point x="180" y="408"/>
      <point x="180" y="383"/>
      <point x="180" y="349" type="curve"/>
      <point x="238" y="349"/>
      <point x="278" y="319"/>
      <point x="279" y="263" type="curve"/>
      <point x="279" y="212"/>
      <point x="260" y="173"/>
      <point x="215" y="175" type="curve"/>
      <point x="177" y="175"/>
      <point x="154" y="193"/>
      <point x="130" y="223" type="curve"/>
      <point x="94" y="196"/>
      <point x="68" y="178"/>
    </contour>
  </outline>
</glyph>
<glyph name="dvCH_RA" format="1">
  <advance width="623"/>
  <outline>
    <contour>
      <point x="368" y="-136" type="move" name="blwm.virama"/>
    </contour>
    <contour>
      <point x="542" y="717" type="move" name="abvm.e"/>
    </contour>
    <contour>
      <point x="407" y="-207" type="move" name="blwm.u"/>
    </contour>
    <component base="dvCHA"/>
    <component base="dvDoublevirama" xOffset="78" yOffset="-10"/>
  </outline>
</glyph>
<glyph name="dvC_CHA" format="1">
  <advance width="977"/>
  <outline>
    <contour>
      <point x="695" y="-29" type="move" name="blwm.virama"/>
    </contour>
    <contour>
      <point x="842" y="719" type="move" name="abvm.e"/>
    </contour>
    <contour>
      <point x="723" y="-99" type="move" name="blwm.u"/>
    </contour>
    <component base="dvCHA" xOffset="300"/>
    <component base="dvC"/>
  </outline>
</glyph>
<glyph name="dvC_base" format="1">
  <advance width="500"/>
  <outline>
    <contour>
      <point x="57" y="431" type="curve"/>
      <point x="142" y="431"/>
      <point x="227" y="431"/>
      <point x="311" y="431" type="curve"/>
      <point x="311" y="542"/>
      <point x="311" y="431"/>
      <point x="311" y="542" type="curve"/>
      <point x="227" y="542"/>
      <point x="142" y="542"/>
      <point x="57" y="542" type="curve"/>
      <point x="57" y="431"/>
      <point x="57" y="542"/>
    </contour>
    <contour>
      <point x="377" y="324" type="curve"/>
      <point x="358" y="281"/>
      <point x="343" y="241"/>
      <point x="298" y="241" type="curve"/>
      <point x="257" y="241"/>
      <point x="239" y="278"/>
      <point x="239" y="324" type="curve"/>
      <point x="239" y="382"/>
      <point x="259" y="431"/>
      <point x="311" y="431" type="curve"/>
      <point x="311" y="467"/>
      <point x="311" y="494"/>
      <point x="311" y="530" type="curve"/>
      <point x="183" y="530"/>
      <point x="96" y="447"/>
      <point x="96" y="319" type="curve"/>
      <point x="96" y="206"/>
      <point x="172" y="131"/>
      <point x="285" y="131" type="curve"/>
      <point x="385" y="131"/>
      <point x="447" y="194"/>
      <point x="479" y="291" type="curve"/>
      <point x="442" y="303"/>
      <point x="414" y="312"/>
    </contour>
  </outline>
</glyph>
<glyph name="dvConnector" format="1">
  <advance width="500"/>
  <outline>
    <contour>
      <point x="508" y="444" type="line"/>
      <point x="491" y="407"/>
      <point x="454" y="382"/>
      <point x="406" y="382" type="curve" smooth="yes"/>
      <point x="356" y="382"/>
      <point x="318" y="399"/>
      <point x="273" y="425" type="curve"/>
      <point x="236" y="344" type="line"/>
      <point x="286" y="318"/>
      <point x="342" y="286"/>
      <point x="407" y="286" type="curve" smooth="yes"/>
      <point x="484" y="286"/>
      <point x="548" y="330"/>
      <point x="577" y="385" type="curve"/>
    </contour>
  </outline>
</glyph>
<glyph name="dvConnector_straight" format="1">
  <advance width="500"/>
  <outline>
    <contour>
      <point x="285" y="615" type="line"/>
      <point x="524" y="615" type="line"/>
      <point x="524" y="726" type="line"/>
      <point x="285" y="726" type="line"/>
    </contour>
  </outline>
</glyph>
<glyph name="dvDA_base" format="1">
  <advance width="500"/>
  <outline>
    <contour>
      <point x="401" y="406" type="curve"/>
      <point x="401" y="493"/>
      <point x="401" y="579"/>
      <point x="401" y="666" type="curve"/>
      <point x="258" y="666"/>
      <point x="401" y="666"/>
      <point x="258" y="666" type="curve"/>
      <point x="258" y="616"/>
      <point x="258" y="567"/>
      <point x="258" y="517" type="curve"/>
      <point x="401" y="406"/>
      <point x="258" y="517"/>
    </contour>
    <contour>
      <point x="300" y="271" type="line"/>
      <point x="300" y="214"/>
      <point x="283" y="166"/>
      <point x="233" y="166" type="curve"/>
      <point x="181" y="166"/>
      <point x="173" y="221"/>
      <point x="173" y="281" type="curve"/>
      <point x="173" y="348"/>
      <point x="195" y="406"/>
      <point x="249" y="406" type="curve"/>
      <point x="304" y="406"/>
      <point x="346" y="406"/>
      <point x="401" y="406" type="curve"/>
      <point x="349" y="446"/>
      <point x="310" y="477"/>
      <point x="258" y="517" type="curve"/>
      <point x="255" y="517"/>
      <point x="252" y="517"/>
      <point x="249" y="517" type="curve"/>
      <point x="115" y="517"/>
      <point x="30" y="422"/>
      <point x="30" y="285" type="curve"/>
      <point x="30" y="154"/>
      <point x="99" y="56"/>
      <point x="226" y="56" type="curve"/>
      <point x="339" y="56"/>
      <point x="413" y="136"/>
      <point x="413" y="255" type="curve"/>
    </contour>
  </outline>
</glyph>
<glyph name="dvDDHA_base" format="1">
  <advance width="500"/>
  <outline>
    <contour>
      <point x="251" y="531" type="line"/>
      <point x="249" y="531"/>
      <point x="248" y="531"/>
      <point x="246" y="531" type="curve"/>
      <point x="111" y="531"/>
      <point x="28" y="426"/>
      <point x="28" y="286" type="curve"/>
      <point x="28" y="118"/>
      <point x="123" y="-9"/>
      <point x="283" y="-9" type="curve"/>
      <point x="404" y="-9"/>
      <point x="495" y="62"/>
      <point x="495" y="179" type="curve"/>
      <point x="495" y="277"/>
      <point x="446" y="354"/>
      <point x="355" y="354" type="curve"/>
      <point x="266" y="354"/>
      <point x="208" y="290"/>
      <point x="208" y="200" type="curve"/>
      <point x="208" y="119"/>
      <point x="259" y="69"/>
      <point x="318" y="14" type="curve"/>
      <point x="337" y="40"/>
      <point x="351" y="60"/>
      <point x="370" y="86" type="curve"/>
      <point x="335" y="109"/>
      <point x="324" y="144"/>
      <point x="324" y="187" type="curve"/>
      <point x="324" y="216"/>
      <point x="324" y="244"/>
      <point x="349" y="244" type="curve"/>
      <point x="375" y="244"/>
      <point x="373" y="215"/>
      <point x="373" y="185" type="curve"/>
      <point x="373" y="136"/>
      <point x="339" y="102"/>
      <point x="290" y="102" type="curve"/>
      <point x="202" y="102"/>
      <point x="167" y="186"/>
      <point x="167" y="285" type="curve"/>
      <point x="167" y="365"/>
      <point x="220" y="420"/>
      <point x="299" y="420" type="curve"/>
      <point x="333" y="420"/>
      <point x="360" y="420"/>
      <point x="394" y="420" type="curve"/>
    </contour>
    <contour>
      <point x="394" y="420" type="line"/>
      <point x="394" y="495"/>
      <point x="394" y="555"/>
      <point x="394" y="630" type="curve"/>
      <point x="343" y="630"/>
      <point x="302" y="630"/>
      <point x="251" y="630" type="curve"/>
      <point x="251" y="595"/>
      <point x="251" y="566"/>
      <point x="251" y="531" type="curve"/>
    </contour>
  </outline>
</glyph>
<glyph name="dvDDH_RA" format="1">
  <advance width="514"/>
  <outline>
    <contour>
      <point x="347" y="-178" type="move" name="blwm.virama"/>
    </contour>
    <contour>
      <point x="399" y="720" type="move" name="abvm.e"/>
    </contour>
    <contour>
      <point x="393" y="-243" type="move" name="blwm.u"/>
    </contour>
    <component base="dvDDHA"/>
    <component base="dvDoublevirama" xOffset="39" yOffset="-30"/>
  </outline>
</glyph>
<glyph name="dvDD_DDA" format="1">
  <advance width="495"/>
  <outline>
    <contour>
      <point x="326" y="-245" type="move" name="blwm.virama"/>
    </contour>
    <contour>
      <point x="346" y="721" type="move" name="abvm.e"/>
    </contour>
    <contour>
      <point x="352" y="-326" type="move" name="blwm.u"/>
    </contour>
    <component base="dvDD_low" yScale="1.043759305" xOffset="12" yOffset="-16"/>
    <component base="dvTopbar" xScale="1.01408313214"/>
    <component base="dvDD_short" yScale="1.043759305" xOffset="26" yOffset="-15"/>
    <component base="dvStem_short" yScale="1.20513663222" xOffset="59" yOffset="-136"/>
  </outline>
</glyph>
<glyph name="dvDD_RA" format="1">
  <advance width="449"/>
  <outline>
    <contour>
      <point x="289" y="-180" type="move" name="blwm.virama"/>
    </contour>
    <contour>
      <point x="375" y="718" type="move" name="abvm.e"/>
    </contour>
    <contour>
      <point x="323" y="-255" type="move" name="blwm.u"/>
    </contour>
    <component base="dvDDA"/>
    <component base="dvDoublevirama" xOffset="-20" yOffset="-33"/>
  </outline>
</glyph>
<glyph name="dvDD_short" format="1">
  <advance width="500"/>
  <outline>
    <contour>
      <point x="163" y="272" type="curve"/>
      <point x="181" y="285"/>
      <point x="215" y="309"/>
      <point x="257" y="308" type="curve"/>
      <point x="282" y="308"/>
      <point x="296" y="298"/>
      <point x="296" y="275" type="curve"/>
      <point x="296" y="255"/>
      <point x="276" y="239"/>
      <point x="254" y="239" type="curve"/>
      <point x="203" y="239"/>
      <point x="140" y="258"/>
      <point x="101" y="281" type="curve"/>
      <point x="41" y="189" type="line"/>
      <point x="110" y="146"/>
      <point x="163" y="129"/>
      <point x="247" y="129" type="curve"/>
      <point x="355" y="129"/>
      <point x="439" y="183"/>
      <point x="439" y="284" type="curve"/>
      <point x="437" y="375"/>
      <point x="362" y="414"/>
      <point x="270" y="413" type="curve"/>
      <point x="235" y="412"/>
      <point x="208" y="408"/>
      <point x="178" y="390" type="curve"/>
      <point x="163" y="272"/>
      <point x="178" y="390"/>
    </contour>
    <contour>
      <point x="305" y="548" type="line"/>
      <point x="219" y="548" type="line"/>
      <point x="118" y="548"/>
      <point x="34" y="509"/>
      <point x="34" y="410" type="curve"/>
      <point x="34" y="333"/>
      <point x="94" y="295"/>
      <point x="163" y="272" type="curve"/>
      <point x="178" y="390"/>
      <point x="163" y="272"/>
      <point x="178" y="390" type="curve"/>
      <point x="170" y="394"/>
      <point x="167" y="403"/>
      <point x="167" y="411" type="curve"/>
      <point x="167" y="434"/>
      <point x="200" y="437"/>
      <point x="225" y="437" type="curve"/>
      <point x="304" y="437" type="line"/>
    </contour>
  </outline>
</glyph>
<glyph name="dvDHA_base" format="1">
  <advance width="500"/>
  <outline>
    <contour>
      <point x="376" y="310" type="curve"/>
      <point x="356" y="242"/>
      <point x="324" y="195"/>
      <point x="264" y="195" type="curve"/>
      <point x="218" y="195"/>
      <point x="182" y="223"/>
      <point x="182" y="272" type="curve"/>
      <point x="182" y="331"/>
      <point x="236" y="360"/>
      <point x="301" y="360" type="curve"/>
      <point x="301" y="454"/>
      <point x="301" y="360"/>
      <point x="301" y="454" type="curve"/>
      <point x="159" y="454"/>
      <point x="39" y="393"/>
      <point x="39" y="267" type="curve"/>
      <point x="39" y="151"/>
      <point x="134" y="85"/>
      <point x="251" y="85" type="curve"/>
      <point x="363" y="85"/>
      <point x="437" y="167"/>
      <point x="460" y="271" type="curve"/>
      <point x="376" y="310"/>
      <point x="460" y="271"/>
    </contour>
    <contour>
      <point x="351" y="584" type="line"/>
      <point x="351" y="670"/>
      <point x="298" y="727"/>
      <point x="211" y="727" type="curve"/>
      <point x="108" y="727"/>
      <point x="34" y="656"/>
      <point x="34" y="555" type="curve"/>
      <point x="34" y="433"/>
      <point x="159" y="380"/>
      <point x="301" y="380" type="curve"/>
      <point x="301" y="474"/>
      <point x="301" y="380"/>
      <point x="301" y="474" type="curve"/>
      <point x="228" y="474"/>
      <point x="171" y="505"/>
      <point x="171" y="560" type="curve"/>
      <point x="171" y="587"/>
      <point x="178" y="617"/>
      <point x="207" y="617" type="curve"/>
      <point x="229" y="617"/>
      <point x="239" y="597"/>
      <point x="239" y="573" type="curve"/>
    </contour>
  </outline>
</glyph>
<glyph name="dvDH_close" format="1">
  <advance width="500"/>
  <outline>
    <contour>
      <point x="353" y="334" type="curve"/>
      <point x="334" y="270"/>
      <point x="317" y="206"/>
      <point x="244" y="206" type="curve"/>
      <point x="204" y="206"/>
      <point x="182" y="238"/>
      <point x="182" y="279" type="curve"/>
      <point x="182" y="323"/>
      <point x="204" y="360"/>
      <point x="248" y="360" type="curve"/>
      <point x="248" y="394"/>
      <point x="248" y="420"/>
      <point x="248" y="454" type="curve"/>
      <point x="128" y="454"/>
      <point x="39" y="386"/>
      <point x="39" y="274" type="curve"/>
      <point x="39" y="167"/>
      <point x="119" y="96"/>
      <point x="231" y="96" type="curve"/>
      <point x="347" y="96"/>
      <point x="412" y="183"/>
      <point x="437" y="295" type="curve"/>
      <point x="407" y="309"/>
      <point x="383" y="320"/>
    </contour>
    <contour>
      <point x="386" y="543" type="line"/>
      <point x="372" y="650"/>
      <point x="295" y="716"/>
      <point x="187" y="716" type="curve"/>
      <point x="95" y="716"/>
      <point x="34" y="649"/>
      <point x="34" y="555" type="curve"/>
      <point x="34" y="443"/>
      <point x="128" y="380"/>
      <point x="248" y="380" type="curve"/>
      <point x="248" y="414"/>
      <point x="248" y="440"/>
      <point x="248" y="474" type="curve"/>
      <point x="203" y="474"/>
      <point x="171" y="504"/>
      <point x="171" y="549" type="curve"/>
      <point x="171" y="582"/>
      <point x="191" y="606"/>
      <point x="223" y="606" type="curve"/>
      <point x="267" y="606"/>
      <point x="295" y="578"/>
      <point x="311" y="536" type="curve"/>
    </contour>
  </outline>
</glyph>
<glyph name="dvD_DA_base" format="1">
  <advance width="500"/>
  <outline>
    <contour>
      <point x="316" y="175" type="curve"/>
      <point x="293" y="137"/>
      <point x="270" y="105"/>
      <point x="227" y="105" type="curve"/>
      <point x="187" y="105"/>
      <point x="163" y="130"/>
      <point x="163" y="163" type="curve"/>
      <point x="163" y="193"/>
      <point x="187" y="215"/>
      <point x="221" y="215" type="curve"/>
      <point x="241" y="215"/>
      <point x="256" y="215"/>
      <point x="276" y="215" type="curve"/>
      <point x="276" y="255"/>
      <point x="276" y="286"/>
      <point x="276" y="326" type="curve"/>
      <point x="256" y="326"/>
      <point x="241" y="326"/>
      <point x="221" y="326" type="curve"/>
      <point x="106" y="326"/>
      <point x="20" y="259"/>
      <point x="20" y="152" type="curve"/>
      <point x="20" y="50"/>
      <point x="110" y="-11"/>
      <point x="227" y="-11" type="curve"/>
      <point x="317" y="-11"/>
      <point x="382" y="35"/>
      <point x="426" y="114" type="curve"/>
      <point x="387" y="136"/>
      <point x="355" y="153"/>
    </contour>
    <contour>
      <point x="276" y="346" type="curve"/>
      <point x="256" y="346"/>
      <point x="241" y="346"/>
      <point x="221" y="346" type="curve"/>
      <point x="186" y="346"/>
      <point x="161" y="364"/>
      <point x="161" y="393" type="curve"/>
      <point x="161" y="416"/>
      <point x="182" y="434"/>
      <point x="218" y="434" type="curve"/>
      <point x="268" y="434"/>
      <point x="307" y="434"/>
      <point x="357" y="434" type="curve"/>
      <point x="306" y="474"/>
      <point x="265" y="505"/>
      <point x="214" y="545" type="curve"/>
      <point x="205" y="545"/>
      <point x="198" y="545"/>
      <point x="189" y="545" type="curve"/>
      <point x="93" y="545"/>
      <point x="21" y="489"/>
      <point x="21" y="397" type="curve"/>
      <point x="21" y="293"/>
      <point x="109" y="235"/>
      <point x="221" y="235" type="curve"/>
      <point x="241" y="235"/>
      <point x="256" y="235"/>
      <point x="276" y="235" type="curve"/>
      <point x="276" y="275"/>
      <point x="276" y="306"/>
    </contour>
    <contour>
      <point x="214" y="624" type="curve"/>
      <point x="214" y="596"/>
      <point x="214" y="573"/>
      <point x="214" y="545" type="curve"/>
      <point x="265" y="505"/>
      <point x="306" y="474"/>
      <point x="357" y="434" type="curve"/>
      <point x="357" y="502"/>
      <point x="357" y="556"/>
      <point x="357" y="624" type="curve"/>
      <point x="306" y="624"/>
      <point x="265" y="624"/>
    </contour>
  </outline>
</glyph>
<glyph name="dvD_YA" format="1">
  <advance width="527"/>
  <outline>
    <contour>
      <point x="358" y="255" type="curve"/>
      <point x="323" y="197"/>
      <point x="291" y="146"/>
      <point x="228" y="146" type="curve"/>
      <point x="188" y="146"/>
      <point x="164" y="171"/>
      <point x="164" y="204" type="curve"/>
      <point x="164" y="234"/>
      <point x="188" y="256"/>
      <point x="222" y="256" type="curve"/>
      <point x="237" y="256"/>
      <point x="248" y="256"/>
      <point x="263" y="256" type="curve"/>
      <point x="263" y="296"/>
      <point x="263" y="327"/>
      <point x="263" y="367" type="curve"/>
      <point x="248" y="367"/>
      <point x="237" y="367"/>
      <point x="222" y="367" type="curve"/>
      <point x="107" y="367"/>
      <point x="21" y="300"/>
      <point x="21" y="193" type="curve"/>
      <point x="21" y="91"/>
      <point x="111" y="30"/>
      <point x="228" y="30" type="curve"/>
      <point x="337" y="30"/>
      <point x="411" y="92"/>
      <point x="468" y="194" type="curve"/>
      <point x="429" y="216"/>
      <point x="397" y="233"/>
    </contour>
    <contour>
      <point x="263" y="387" type="curve"/>
      <point x="248" y="387"/>
      <point x="237" y="387"/>
      <point x="222" y="387" type="curve"/>
      <point x="187" y="387"/>
      <point x="162" y="405"/>
      <point x="162" y="434" type="curve"/>
      <point x="162" y="457"/>
      <point x="183" y="475"/>
      <point x="219" y="475" type="curve"/>
      <point x="243" y="475"/>
      <point x="261" y="475"/>
      <point x="285" y="475" type="curve"/>
      <point x="234" y="515"/>
      <point x="193" y="546"/>
      <point x="142" y="586" type="curve"/>
      <point x="142" y="586"/>
      <point x="141" y="586"/>
      <point x="141" y="586" type="curve"/>
      <point x="71" y="576"/>
      <point x="22" y="530"/>
      <point x="22" y="438" type="curve"/>
      <point x="22" y="334"/>
      <point x="110" y="276"/>
      <point x="222" y="276" type="curve"/>
      <point x="237" y="276"/>
      <point x="248" y="276"/>
      <point x="263" y="276" type="curve"/>
      <point x="263" y="316"/>
      <point x="263" y="347"/>
    </contour>
    <contour>
      <point x="142" y="665" type="curve"/>
      <point x="142" y="637"/>
      <point x="142" y="614"/>
      <point x="142" y="586" type="curve"/>
      <point x="193" y="546"/>
      <point x="234" y="515"/>
      <point x="285" y="475" type="curve"/>
      <point x="285" y="543"/>
      <point x="285" y="597"/>
      <point x="285" y="665" type="curve"/>
      <point x="234" y="665"/>
      <point x="193" y="665"/>
    </contour>
    <component base="dvTopbar"/>
    <component base="dvStemright" xOffset="249"/>
  </outline>
</glyph>
<glyph name="dvG_LA" format="1">
  <advance width="1035"/>
  <outline>
    <contour>
      <point x="926" y="53" type="move" name="blwm.virama"/>
    </contour>
    <contour>
      <point x="878" y="720" type="move" name="abvm.e"/>
    </contour>
    <contour>
      <point x="915" y="-20" type="move" name="blwm.u"/>
    </contour>
    <component base="dvG"/>
    <component base="dvLA" xOffset="345"/>
  </outline>
</glyph>
<glyph name="dvJ_DA" format="1">
  <advance width="927"/>
  <outline>
    <contour>
      <point x="853" y="-39" type="move" name="blwm.virama"/>
    </contour>
    <contour>
      <point x="839" y="720" type="move" name="abvm.e"/>
    </contour>
    <contour>
      <point x="845" y="-114" type="move" name="blwm.u"/>
    </contour>
    <component base="dvTopbar"/>
    <component base="dvDA" xOffset="439"/>
    <component base="dvJ_base" xOffset="12" yOffset="-28"/>
  </outline>
</glyph>
<glyph name="dvJ_TTA" format="1">
  <advance width="914"/>
  <outline>
    <contour>
      <point x="748" y="-12" type="move" name="blwm.virama"/>
    </contour>
    <contour>
      <point x="800" y="716" type="move" name="abvm.e"/>
    </contour>
    <contour>
      <point x="780" y="-98" type="move" name="blwm.u"/>
    </contour>
    <component base="dvTTA" xOffset="398"/>
    <component base="dvJ_base" xOffset="-1" yOffset="-46"/>
    <component base="dvTopbar"/>
  </outline>
</glyph>
<glyph name="dvJ_base" format="1">
  <advance width="500"/>
  <outline>
    <contour>
      <point x="599" y="515" type="curve"/>
      <point x="469" y="515"/>
      <point x="334" y="515"/>
      <point x="204" y="515" type="curve"/>
      <point x="204" y="475"/>
      <point x="204" y="444"/>
      <point x="204" y="404" type="curve"/>
      <point x="334" y="404"/>
      <point x="469" y="404"/>
      <point x="599" y="404" type="curve"/>
      <point x="599" y="444"/>
      <point x="599" y="475"/>
    </contour>
    <contour>
      <point x="19" y="410" type="line"/>
      <point x="30" y="242"/>
      <point x="59" y="86"/>
      <point x="217" y="86" type="curve"/>
      <point x="337" y="86"/>
      <point x="419" y="171"/>
      <point x="419" y="299" type="curve"/>
      <point x="419" y="428"/>
      <point x="333" y="515"/>
      <point x="204" y="515" type="curve"/>
      <point x="204" y="475"/>
      <point x="204" y="444"/>
      <point x="204" y="404" type="curve"/>
      <point x="259" y="404"/>
      <point x="276" y="350"/>
      <point x="276" y="288" type="curve"/>
      <point x="276" y="238"/>
      <point x="256" y="197"/>
      <point x="211" y="197" type="curve"/>
      <point x="144" y="197"/>
      <point x="135" y="327"/>
      <point x="129" y="449" type="curve"/>
    </contour>
  </outline>
</glyph>
<glyph name="dvK_RA" format="1">
  <advance width="739"/>
  <outline>
    <contour>
      <point x="455" y="-38" type="move" name="blwm.virama"/>
    </contour>
    <contour>
      <point x="447" y="722" type="move" name="abvm.e"/>
    </contour>
    <contour>
      <point x="456" y="-89" type="move" name="blwm.u"/>
    </contour>
    <component base="dvKA"/>
    <component base="dvRaker" xOffset="-140" yOffset="-119"/>
  </outline>
</glyph>
<glyph name="dvK_SS" format="1">
  <advance width="419"/>
  <outline>
    <contour>
      <point x="306" y="241" type="line"/>
      <point x="306" y="181"/>
      <point x="283" y="131"/>
      <point x="230" y="131" type="curve"/>
      <point x="191" y="131"/>
      <point x="173" y="167"/>
      <point x="173" y="210" type="curve"/>
      <point x="173" y="272"/>
      <point x="210" y="313"/>
      <point x="265" y="344" type="curve"/>
      <point x="353" y="391"/>
      <point x="421" y="449"/>
      <point x="422" y="547" type="curve"/>
      <point x="422" y="653"/>
      <point x="353" y="727"/>
      <point x="248" y="727" type="curve"/>
      <point x="141" y="727"/>
      <point x="67" y="654"/>
      <point x="67" y="547" type="curve"/>
      <point x="67" y="464"/>
      <point x="97" y="399"/>
      <point x="166" y="352" type="curve"/>
      <point x="261" y="436" type="line"/>
      <point x="223" y="462"/>
      <point x="210" y="500"/>
      <point x="210" y="547" type="curve"/>
      <point x="210" y="583"/>
      <point x="211" y="617"/>
      <point x="242" y="617" type="curve"/>
      <point x="273" y="617"/>
      <point x="279" y="583"/>
      <point x="279" y="547" type="curve"/>
      <point x="279" y="497"/>
      <point x="252" y="462"/>
      <point x="207" y="438" type="curve"/>
      <point x="108" y="383"/>
      <point x="30" y="320"/>
      <point x="30" y="210" type="curve"/>
      <point x="30" y="96"/>
      <point x="111" y="20"/>
      <point x="226" y="20" type="curve"/>
      <point x="347" y="20"/>
      <point x="415" y="91"/>
      <point x="415" y="216" type="curve"/>
    </contour>
    <component base="dvStroke_down" xOffset="1" yOffset="-38"/>
  </outline>
</glyph>
<glyph name="dvK_S_TTA" format="1">
  <advance width="1378"/>
  <outline>
    <contour>
      <point x="1250" y="-13" type="move" name="blwm.virama"/>
    </contour>
    <contour>
      <point x="1283" y="720" type="move" name="abvm.e"/>
    </contour>
    <contour>
      <point x="1282" y="-99" type="move" name="blwm.u"/>
    </contour>
    <component base="dvConnector" xOffset="490" yOffset="4"/>
    <component base="dvTTA" xOffset="886"/>
    <component base="dvK"/>
    <component base="dvS" xOffset="536"/>
  </outline>
</glyph>
<glyph name="dvK_right" format="1">
  <advance width="500"/>
  <outline>
    <contour>
      <point x="710" y="331" type="line"/>
      <point x="707" y="451"/>
      <point x="636" y="539"/>
      <point x="521" y="539" type="curve"/>
      <point x="423" y="539"/>
      <point x="364" y="468"/>
      <point x="344" y="369" type="curve"/>
      <point x="377" y="361"/>
      <point x="402" y="355"/>
      <point x="435" y="347" type="curve"/>
      <point x="446" y="393"/>
      <point x="472" y="428"/>
      <point x="517" y="428" type="curve"/>
      <point x="564" y="428"/>
      <point x="588" y="383"/>
      <point x="591" y="331" type="curve"/>
    </contour>
  </outline>
</glyph>
<glyph name="dvKx_KxA" format="1">
  <advance width="1274"/>
  <outline>
    <contour>
      <point x="990" y="0" type="move" name="blwm.virama"/>
    </contour>
    <contour>
      <point x="981" y="718" type="move" name="abvm.e"/>
    </contour>
    <contour>
      <point x="990" y="0" type="move" name="blwm.u"/>
    </contour>
    <component base="dvKA" xOffset="535"/>
    <component base="dvAnusvara" xOffset="372" yOffset="-1057"/>
    <component base="dvAnusvara" xOffset="871" yOffset="-1057"/>
    <component base="dvK"/>
  </outline>
</glyph>
<glyph name="dvKx_PHxA" format="1">
  <advance width="1232"/>
  <outline>
    <contour>
      <point x="988" y="-43" type="move" name="blwm.virama"/>
    </contour>
    <contour>
      <point x="988" y="722" type="move" name="abvm.e"/>
    </contour>
    <contour>
      <point x="1042" y="-113" type="move" name="blwm.u"/>
    </contour>
    <component base="dvPHA" xOffset="509"/>
    <component base="dvAnusvara" xOffset="357" yOffset="-1050"/>
    <component base="dvAnusvara" xOffset="828" yOffset="-959"/>
    <component base="dvK"/>
  </outline>
</glyph>
<glyph name="dvLA_open" format="1">
  <advance width="500"/>
  <outline>
    <contour>
      <point x="323" y="93" type="curve"/>
      <point x="239" y="160"/>
      <point x="175" y="228"/>
      <point x="175" y="331" type="curve"/>
      <point x="175" y="382"/>
      <point x="188" y="429"/>
      <point x="238" y="429" type="curve"/>
      <point x="281" y="429"/>
      <point x="304" y="396"/>
      <point x="332" y="362" type="curve"/>
      <point x="397" y="450" type="curve"/>
      <point x="355" y="504"/>
      <point x="307" y="540"/>
      <point x="239" y="540" type="curve"/>
      <point x="122" y="540"/>
      <point x="47" y="449"/>
      <point x="47" y="327" type="curve"/>
      <point x="47" y="184"/>
      <point x="131" y="89"/>
      <point x="245" y="-1" type="curve"/>
    </contour>
    <contour>
      <point x="638" y="343" type="line"/>
      <point x="638" y="455"/>
      <point x="576" y="537"/>
      <point x="477" y="537" type="curve"/>
      <point x="359" y="537"/>
      <point x="294" y="426"/>
      <point x="294" y="288" type="curve"/>
      <point x="403" y="288" type="curve"/>
      <point x="403" y="360"/>
      <point x="414" y="427"/>
      <point x="467" y="427" type="curve"/>
      <point x="522" y="427"/>
      <point x="544" y="388"/>
      <point x="544" y="343" type="curve"/>
    </contour>
  </outline>
</glyph>
<glyph name="dvL_DDHA" format="1">
  <advance width="995"/>
  <outline>
    <contour>
      <point x="882" y="-46" type="move" name="blwm.virama"/>
    </contour>
    <contour>
      <point x="873" y="718" type="move" name="abvm.e"/>
    </contour>
    <contour>
      <point x="882" y="-124" type="move" name="blwm.u"/>
    </contour>
    <component base="dvTopbar" xScale="1.27613829878" xOffset="6"/>
    <component base="dvLA_open" xOffset="8" yOffset="-25"/>
    <component base="dvDDHA" xOffset="481"/>
  </outline>
</glyph>
<glyph name="dvL_D_RA" format="1">
  <advance width="976"/>
  <outline>
    <contour>
      <point x="890" y="-62" type="move" name="blwm.virama"/>
    </contour>
    <contour>
      <point x="884" y="719" type="move" name="abvm.e"/>
    </contour>
    <contour>
      <point x="890" y="-143" type="move" name="blwm.u"/>
    </contour>
    <component base="dvTopbar" xScale="1.27613829878" xOffset="6"/>
    <component base="dvLA_open" xOffset="21" yOffset="-18"/>
    <component base="dvD_RA" xOffset="488"/>
  </outline>
</glyph>
<glyph name="dvL_TTHA" format="1">
  <advance width="991"/>
  <outline>
    <contour>
      <point x="827" y="-3" type="move" name="blwm.virama"/>
    </contour>
    <contour>
      <point x="819" y="715" type="move" name="abvm.e"/>
    </contour>
    <contour>
      <point x="847" y="-88" type="move" name="blwm.u"/>
    </contour>
    <component base="dvTopbar" xScale="1.01405057247"/>
    <component base="dvLA_open" xOffset="15" yOffset="-29"/>
    <component base="dvTTHA" xOffset="493"/>
  </outline>
</glyph>
<glyph name="dvM_HA" format="1">
  <advance width="887"/>
  <outline>
    <contour>
      <point x="694" y="-152" type="move" name="blwm.virama"/>
    </contour>
    <contour>
      <point x="759" y="715" type="move" name="abvm.e"/>
    </contour>
    <contour>
      <point x="746" y="-234" type="move" name="blwm.u"/>
    </contour>
    <component base="dvM"/>
    <component base="dvHA" xOffset="399"/>
  </outline>
</glyph>
<glyph name="dvM_LA" format="1">
  <advance width="1077"/>
  <outline>
    <contour>
      <point x="954" y="40" type="move" name="blwm.virama"/>
    </contour>
    <contour>
      <point x="920" y="719" type="move" name="abvm.e"/>
    </contour>
    <contour>
      <point x="943" y="-33" type="move" name="blwm.u"/>
    </contour>
    <component base="dvM"/>
    <component base="dvLA" xOffset="387"/>
  </outline>
</glyph>
<glyph name="dvNG_RA" format="1">
  <advance width="581"/>
  <outline>
    <contour>
      <point x="288" y="-162" type="move" name="blwm.virama"/>
    </contour>
    <contour>
      <point x="377" y="721" type="move" name="abvm.e"/>
    </contour>
    <contour>
      <point x="335" y="-222" type="move" name="blwm.u"/>
    </contour>
    <component base="dvDDA" xOffset="-1"/>
    <component base="dvAnusvara" xOffset="577" yOffset="-572"/>
    <component base="dvTopbar" xOffset="93"/>
    <component base="dvDoublevirama" xOffset="-30" yOffset="-30"/>
  </outline>
</glyph>
<glyph name="dvN_CHA" format="1">
  <advance width="1043"/>
  <outline>
    <contour>
      <point x="796" y="-31" type="move" name="blwm.virama"/>
    </contour>
    <contour>
      <point x="905" y="713" type="move" name="abvm.e"/>
    </contour>
    <contour>
      <point x="796" y="-110" type="move" name="blwm.u"/>
    </contour>
    <component base="dvCHA" xOffset="366"/>
    <component base="dvNA_base" xOffset="-64" yOffset="29"/>
    <component base="dvTopbar"/>
  </outline>
</glyph>
<glyph name="dvN_D_VA" format="1">
  <advance width="857"/>
  <outline>
    <contour>
      <point x="787" y="-302" type="move" name="blwm.virama"/>
    </contour>
    <contour>
      <point x="760" y="720" type="move" name="abvm.e"/>
    </contour>
    <contour>
      <point x="787" y="-279" type="move" name="blwm.u"/>
    </contour>
    <component base="dvD_VA" xOffset="375"/>
    <component base="dvN"/>
  </outline>
</glyph>
<glyph name="dvN_HA" format="1">
  <advance width="841"/>
  <outline>
    <contour>
      <point x="647" y="-127" type="move" name="blwm.virama"/>
    </contour>
    <contour>
      <point x="710" y="718" type="move" name="abvm.e"/>
    </contour>
    <contour>
      <point x="699" y="-209" type="move" name="blwm.u"/>
    </contour>
    <component base="dvN"/>
    <component base="dvHA" xOffset="353"/>
  </outline>
</glyph>
<glyph name="dvN_PHA" format="1">
  <advance width="1108"/>
  <outline>
    <contour>
      <point x="824" y="0" type="move" name="blwm.virama"/>
    </contour>
    <contour>
      <point x="824" y="712" type="move" name="abvm.e"/>
    </contour>
    <contour>
      <point x="824" y="0" type="move" name="blwm.u"/>
    </contour>
    <component base="dvPHA" xOffset="337"/>
    <component base="dvN"/>
  </outline>
</glyph>
<glyph name="dvPHx_PHxA" format="1">
  <advance width="1286"/>
  <outline>
    <contour>
      <point x="1006" y="-37" type="move" name="blwm.virama"/>
    </contour>
    <contour>
      <point x="999" y="717" type="move" name="abvm.e"/>
    </contour>
    <contour>
      <point x="1065" y="-114" type="move" name="blwm.u"/>
    </contour>
    <component base="dvPHA" xOffset="515"/>
    <component base="dvAnusvara" xOffset="324" yOffset="-944"/>
    <component base="dvAnusvara" xOffset="840" yOffset="-947"/>
    <component base="dvPH" xOffset="-1"/>
  </outline>
</glyph>
<glyph name="dvSHA_base" format="1">
  <advance width="500"/>
  <outline>
    <contour>
      <point x="142" y="149" type="line"/>
      <point x="284" y="309" type="line" smooth="yes"/>
      <point x="355" y="380"/>
      <point x="421" y="455"/>
      <point x="422" y="553" type="curve"/>
      <point x="422" y="659"/>
      <point x="353" y="727"/>
      <point x="248" y="727" type="curve"/>
      <point x="141" y="727"/>
      <point x="67" y="659"/>
      <point x="67" y="552" type="curve"/>
      <point x="67" y="469"/>
      <point x="106" y="409"/>
      <point x="185" y="354" type="curve"/>
      <point x="474" y="171" type="line"/>
      <point x="535" y="283" type="line"/>
      <point x="280" y="436" type="line"/>
      <point x="234" y="467"/>
      <point x="210" y="503"/>
      <point x="210" y="553" type="curve"/>
      <point x="210" y="589"/>
      <point x="213" y="617"/>
      <point x="242" y="617" type="curve"/>
      <point x="272" y="617"/>
      <point x="279" y="591"/>
      <point x="279" y="555" type="curve"/>
      <point x="279" y="505"/>
      <point x="252" y="456"/>
      <point x="218" y="419" type="curve" smooth="yes"/>
      <point x="43" y="233" type="line"/>
    </contour>
  </outline>
</glyph>
<glyph name="dvSH_KA" format="1">
  <advance width="1146"/>
  <outline>
    <contour>
      <point x="852" y="-9" type="move" name="blwm.virama"/>
    </contour>
    <contour>
      <point x="854" y="719" type="move" name="abvm.e"/>
    </contour>
    <contour>
      <point x="869" y="-95" type="move" name="blwm.u"/>
    </contour>
    <component base="dvKA" xOffset="407"/>
    <component base="dvSH"/>
  </outline>
</glyph>
<glyph name="dvSS" format="1">
  <advance width="295"/>
  <outline>
    <contour>
      <point x="442" y="333" type="line"/>
      <point x="187" y="638" type="line"/>
      <point x="110" y="591" type="line"/>
      <point x="378" y="281" type="line"/>
    </contour>
    <component base="dvP"/>
  </outline>
</glyph>
<glyph name="dvSS_K_RA" format="1">
  <advance width="1035"/>
  <outline>
    <contour>
      <point x="744" y="-38" type="move" name="blwm.virama"/>
    </contour>
    <contour>
      <point x="744" y="719" type="move" name="abvm.e"/>
    </contour>
    <contour>
      <point x="745" y="-89" type="move" name="blwm.u"/>
    </contour>
    <component base="dvSS"/>
    <component base="dvKA" xOffset="296"/>
    <component base="dvRaker" xOffset="167" yOffset="-88"/>
  </outline>
</glyph>
<glyph name="dvSS_TTH_RA" format="1">
  <advance width="786"/>
  <outline>
    <contour>
      <point x="607" y="-128" type="move" name="blwm.virama"/>
    </contour>
    <contour>
      <point x="613" y="721" type="move" name="abvm.e"/>
    </contour>
    <contour>
      <point x="650" y="-188" type="move" name="blwm.u"/>
    </contour>
    <component base="dvSS_TTHA"/>
    <component base="dvDoublevirama" xOffset="284" yOffset="28"/>
  </outline>
</glyph>
<glyph name="dvSS_TT_VA" format="1">
  <advance width="779"/>
  <outline>
    <contour>
      <point x="716" y="-244" type="move" name="blwm.virama"/>
    </contour>
    <contour>
      <point x="691" y="722" type="move" name="abvm.e"/>
    </contour>
    <contour>
      <point x="716" y="-248" type="move" name="blwm.u"/>
    </contour>
    <component base="dvSS"/>
    <component base="dvTopbar" xScale="0.971307099007" xOffset="306"/>
    <component base="dvTTA_short" xOffset="25"/>
    <component base="dvStroke_down" yScale="1.45590718348" xOffset="303" yOffset="-188"/>
    <component base="dvVA_open" xOffset="-67" yOffset="92"/>
  </outline>
</glyph>
<glyph name="dvS_BA" format="1">
  <advance width="889"/>
  <outline>
    <contour>
      <point x="836" y="-30" type="move" name="blwm.virama"/>
    </contour>
    <contour>
      <point x="835" y="722" type="move" name="abvm.e"/>
    </contour>
    <contour>
      <point x="836" y="-111" type="move" name="blwm.u"/>
    </contour>
    <contour>
      <point x="459" y="440" type="line"/>
      <point x="431" y="410"/>
      <point x="397" y="399"/>
      <point x="356" y="399" type="curve" smooth="yes"/>
      <point x="312" y="399"/>
      <point x="282" y="420"/>
      <point x="245" y="443" type="curve"/>
      <point x="180" y="368" type="line"/>
      <point x="234" y="330"/>
      <point x="282" y="303"/>
      <point x="348" y="303" type="curve" smooth="yes"/>
      <point x="419" y="303"/>
      <point x="472" y="331"/>
      <point x="524" y="378" type="curve"/>
    </contour>
    <component base="dvBA" xOffset="393"/>
    <component base="dvS" xOffset="-12"/>
  </outline>
</glyph>
<glyph name="dvS_T_RA" format="1">
  <advance width="883"/>
  <outline>
    <contour>
      <point x="471" y="430" type="line"/>
      <point x="443" y="400"/>
      <point x="409" y="389"/>
      <point x="368" y="389" type="curve" smooth="yes"/>
      <point x="324" y="389"/>
      <point x="294" y="410"/>
      <point x="257" y="433" type="curve"/>
      <point x="192" y="358" type="line"/>
      <point x="246" y="320"/>
      <point x="294" y="293"/>
      <point x="360" y="293" type="curve" smooth="yes"/>
      <point x="431" y="293"/>
      <point x="484" y="321"/>
      <point x="536" y="368" type="curve"/>
    </contour>
    <component base="dvT_RA" xOffset="354"/>
    <component base="dvS"/>
  </outline>
</glyph>
<glyph name="dvS_T_VA" format="1">
  <advance width="1148"/>
  <outline>
    <contour>
      <point x="471" y="420" type="line"/>
      <point x="443" y="390"/>
      <point x="409" y="379"/>
      <point x="368" y="379" type="curve" smooth="yes"/>
      <point x="324" y="379"/>
      <point x="294" y="400"/>
      <point x="257" y="423" type="curve"/>
      <point x="192" y="348" type="line"/>
      <point x="246" y="310"/>
      <point x="294" y="283"/>
      <point x="360" y="283" type="curve" smooth="yes"/>
      <point x="431" y="283"/>
      <point x="484" y="311"/>
      <point x="536" y="358" type="curve"/>
    </contour>
    <component base="dvT_VA" xOffset="384"/>
    <component base="dvS"/>
  </outline>
</glyph>
<glyph name="dvS_T_YA" format="1">
  <advance width="1237"/>
  <outline>
    <contour>
      <point x="482" y="400" type="line"/>
      <point x="454" y="370"/>
      <point x="420" y="359"/>
      <point x="379" y="359" type="curve" smooth="yes"/>
      <point x="335" y="359"/>
      <point x="305" y="380"/>
      <point x="268" y="403" type="curve"/>
      <point x="203" y="328" type="line"/>
      <point x="257" y="290"/>
      <point x="305" y="263"/>
      <point x="371" y="263" type="curve" smooth="yes"/>
      <point x="442" y="263"/>
      <point x="495" y="291"/>
      <point x="547" y="338" type="curve"/>
    </contour>
    <component base="dvT_YA" xOffset="368"/>
    <component base="dvS"/>
  </outline>
</glyph>
<glyph name="dvSeven" format="1">
  <advance width="472"/>
  <outline>
    <contour>
      <point x="171" y="528" type="line"/>
      <point x="171" y="612" type="line"/>
      <point x="59" y="612" type="line"/>
      <point x="59" y="528" type="line"/>
    </contour>
    <contour>
      <point x="59" y="612" type="line"/>
      <point x="453" y="612" type="line"/>
      <point x="453" y="722" type="line"/>
      <point x="59" y="722" type="line"/>
    </contour>
    <contour>
      <point x="371" y="722" type="line"/>
      <point x="45" y="0" type="line"/>
      <point x="187" y="0" type="line"/>
      <point x="453" y="612" type="line"/>
    </contour>
  </outline>
</glyph>
<glyph name="dvTTA_base" format="1">
  <advance width="500"/>
  <outline>
    <contour>
      <point x="524" y="534" type="line"/>
      <point x="405" y="534"/>
      <point x="327" y="448"/>
      <point x="327" y="330" type="curve"/>
      <point x="327" y="203"/>
      <point x="416" y="117"/>
      <point x="544" y="117" type="curve"/>
      <point x="608" y="117"/>
      <point x="656" y="137"/>
      <point x="710" y="172" type="curve"/>
      <point x="652" y="262" type="line"/>
      <point x="621" y="246"/>
      <point x="597" y="228"/>
      <point x="562" y="228" type="curve"/>
      <point x="504" y="228"/>
      <point x="465" y="271"/>
      <point x="465" y="330" type="curve"/>
      <point x="465" y="390"/>
      <point x="503" y="433"/>
      <point x="561" y="433" type="curve"/>
    </contour>
  </outline>
</glyph>
<glyph name="dvTTA_short" format="1">
  <advance width="500"/>
  <outline>
    <contour>
      <point x="527" y="539" type="curve"/>
      <point x="525" y="539"/>
      <point x="524" y="539"/>
      <point x="522" y="539" type="curve"/>
      <point x="404" y="539"/>
      <point x="327" y="451"/>
      <point x="327" y="330" type="curve"/>
      <point x="327" y="203"/>
      <point x="416" y="117"/>
      <point x="544" y="117" type="curve"/>
      <point x="608" y="117"/>
      <point x="656" y="137"/>
      <point x="710" y="172" type="curve"/>
      <point x="652" y="262" type="line"/>
      <point x="621" y="246"/>
      <point x="597" y="228"/>
      <point x="562" y="228" type="curve"/>
      <point x="504" y="228"/>
      <point x="465" y="271"/>
      <point x="465" y="330" type="curve"/>
      <point x="465" y="387"/>
      <point x="503" y="428"/>
      <point x="560" y="428" type="curve"/>
      <point x="599" y="428"/>
      <point x="631" y="428"/>
      <point x="670" y="428" type="curve"/>
      <point x="619" y="467"/>
      <point x="578" y="500"/>
    </contour>
    <contour>
      <point x="527" y="666" type="curve"/>
      <point x="527" y="621"/>
      <point x="527" y="584"/>
      <point x="527" y="539" type="curve"/>
      <point x="578" y="499"/>
      <point x="619" y="468"/>
      <point x="670" y="428" type="curve"/>
      <point x="670" y="513"/>
      <point x="670" y="581"/>
      <point x="670" y="666" type="curve"/>
      <point x="619" y="666"/>
      <point x="578" y="666"/>
    </contour>
  </outline>
</glyph>
<glyph name="dvTopbar" format="1">
  <advance width="502"/>
  <outline>
    <contour>
      <point x="-20" y="612" type="line"/>
      <point x="508" y="612" type="line"/>
      <point x="508" y="722" type="line"/>
      <point x="-20" y="722" type="line"/>
    </contour>
  </outline>
</glyph>
<glyph name="dvV_HA" format="1">
  <advance width="735"/>
  <outline>
    <contour>
      <point x="536" y="-117" type="move" name="blwm.virama"/>
    </contour>
    <contour>
      <point x="604" y="717" type="move" name="abvm.e"/>
    </contour>
    <contour>
      <point x="588" y="-199" type="move" name="blwm.u"/>
    </contour>
    <component base="dvVA_base" xOffset="-5" yOffset="-55"/>
    <component base="dvTopbar"/>
    <component base="dvHA" xOffset="247"/>
  </outline>
</glyph>
<glyph name="dvV_LA" format="1">
  <advance width="970"/>
  <outline>
    <contour>
      <point x="843" y="42" type="move" name="blwm.virama"/>
    </contour>
    <contour>
      <point x="817" y="722" type="move" name="abvm.e"/>
    </contour>
    <contour>
      <point x="832" y="-31" type="move" name="blwm.u"/>
    </contour>
    <component base="dvV"/>
    <component base="dvLA" xOffset="280"/>
  </outline>
</glyph>
<glyph name="dvYA_short" format="1">
  <advance width="500"/>
  <outline>
    <contour>
      <point x="503" y="324" type="curve"/>
      <point x="503" y="177"/>
      <point x="556" y="52"/>
      <point x="687" y="52" type="curve"/>
      <point x="794" y="52"/>
      <point x="861" y="123"/>
      <point x="902" y="225" type="curve"/>
      <point x="865" y="243"/>
      <point x="835" y="256"/>
      <point x="798" y="274" type="curve"/>
      <point x="785" y="214"/>
      <point x="757" y="163"/>
      <point x="696" y="163" type="curve"/>
      <point x="656" y="163"/>
      <point x="628" y="197"/>
      <point x="622" y="244" type="curve"/>
      <point x="579" y="273"/>
      <point x="546" y="295"/>
    </contour>
    <contour>
      <point x="622" y="244" type="curve"/>
      <point x="691" y="253"/>
      <point x="729" y="307"/>
      <point x="729" y="378" type="curve"/>
      <point x="729" y="477"/>
      <point x="644" y="530"/>
      <point x="538" y="530" type="curve"/>
      <point x="482" y="530"/>
      <point x="437" y="530"/>
      <point x="381" y="530" type="curve"/>
      <point x="381" y="491"/>
      <point x="382" y="459"/>
      <point x="382" y="420" type="curve"/>
      <point x="431" y="420"/>
      <point x="469" y="420"/>
      <point x="518" y="420" type="curve"/>
      <point x="555" y="420"/>
      <point x="586" y="406"/>
      <point x="586" y="373" type="curve"/>
      <point x="586" y="335"/>
      <point x="547" y="324"/>
      <point x="503" y="324" type="curve"/>
      <point x="546" y="295"/>
      <point x="579" y="273"/>
    </contour>
  </outline>
</glyph>
<glyph name="dvmAI_Reph" format="1">
  <advance width="0"/>
  <outline>
    <contour>
      <point x="-14" y="731" type="move" name="_abvm.e"/>
    </contour>
    <component base="dvmAI" xOffset="10" yOffset="-4"/>
    <component base="dvReph" xOffset="27" yOffset="-10"/>
  </outline>
</glyph>
<glyph name="dvmE_Reph" format="1">
  <advance width="0"/>
  <outline>
    <contour>
      <point x="-36" y="685" type="move" name="_abvm.e"/>
    </contour>
    <component base="dvmE" xOffset="-11" yOffset="-16"/>
    <component base="dvReph" xOffset="-10" yOffset="-32"/>
  </outline>
</glyph>
<glyph name="dvmI.a05" format="1">
  <advance width="314"/>
  <outline>
    <contour>
      <point x="981" y="697" type="move" name="abvm.i"/>
    </contour>
    <contour>
      <point x="229" y="689" type="curve"/>
      <point x="219" y="722"/>
      <point x="214" y="746"/>
      <point x="214" y="780" type="curve"/>
      <point x="214" y="869"/>
      <point x="287" y="894"/>
      <point x="361" y="894" type="curve"/>
      <point x="601" y="894"/>
      <point x="763" y="794"/>
      <point x="896" y="642" type="curve"/>
      <point x="925" y="671"/>
      <point x="959" y="677"/>
      <point x="991" y="707" type="curve"/>
      <point x="825" y="896"/>
      <point x="647" y="1011"/>
      <point x="363" y="1011" type="curve"/>
      <point x="216" y="1011"/>
      <point x="87" y="962"/>
      <point x="87" y="770" type="curve"/>
      <point x="87" y="714"/>
      <point x="102" y="679"/>
      <point x="123" y="633" type="curve"/>
      <point x="160" y="657"/>
      <point x="193" y="664"/>
    </contour>
    <component base="dvmAA" xOffset="34"/>
  </outline>
</glyph>
<glyph name="dvmI.a11" format="1">
  <advance width="314"/>
  <outline>
    <contour>
      <point x="1301" y="697" type="move" name="abvm.i"/>
    </contour>
    <contour>
      <point x="229" y="689" type="curve"/>
      <point x="219" y="722"/>
      <point x="214" y="746"/>
      <point x="214" y="780" type="curve"/>
      <point x="214" y="869"/>
      <point x="326" y="894"/>
      <point x="440" y="894" type="curve"/>
      <point x="786" y="894"/>
      <point x="1043" y="769"/>
      <point x="1213" y="642" type="curve"/>
      <point x="1242" y="671"/>
      <point x="1276" y="677"/>
      <point x="1308" y="707" type="curve"/>
      <point x="1106" y="874"/>
      <point x="832" y="1011"/>
      <point x="442" y="1011" type="curve"/>
      <point x="253" y="1011"/>
      <point x="87" y="962"/>
      <point x="87" y="770" type="curve"/>
      <point x="87" y="714"/>
      <point x="102" y="679"/>
      <point x="123" y="633" type="curve"/>
      <point x="160" y="657"/>
      <point x="193" y="664"/>
    </contour>
    <component base="dvmAA" xOffset="34"/>
  </outline>
</glyph>
<glyph name="dvmI.a13" format="1">
  <advance width="314"/>
  <outline>
    <contour>
      <point x="1401" y="697" type="move" name="abvm.i"/>
    </contour>
    <contour>
      <point x="229" y="689" type="curve"/>
      <point x="219" y="722"/>
      <point x="214" y="746"/>
      <point x="214" y="780" type="curve"/>
      <point x="214" y="869"/>
      <point x="343" y="894"/>
      <point x="475" y="894" type="curve"/>
      <point x="854" y="894"/>
      <point x="1142" y="776"/>
      <point x="1323" y="642" type="curve"/>
      <point x="1352" y="671"/>
      <point x="1386" y="677"/>
      <point x="1418" y="707" type="curve"/>
      <point x="1206" y="883"/>
      <point x="900" y="1011"/>
      <point x="477" y="1011" type="curve"/>
      <point x="269" y="1011"/>
      <point x="87" y="962"/>
      <point x="87" y="770" type="curve"/>
      <point x="87" y="714"/>
      <point x="102" y="679"/>
      <point x="123" y="633" type="curve"/>
      <point x="160" y="657"/>
      <point x="193" y="664"/>
    </contour>
    <component base="dvmAA" xOffset="34"/>
  </outline>
</glyph>
<glyph name="dvmvRR" format="1">
  <advance width="0"/>
  <outline>
    <contour>
      <point x="-57" y="1" type="move" name="_blwm.u"/>
    </contour>
    <contour>
      <point x="-43" y="-101" type="line"/>
      <point x="-98" y="-101"/>
      <point x="-149" y="-91"/>
      <point x="-150" y="-43" type="curve"/>
      <point x="-152" y="-6"/>
      <point x="-112" y="1"/>
      <point x="-69" y="1" type="curve"/>
      <point x="-69" y="31"/>
      <point x="-69" y="53"/>
      <point x="-69" y="83" type="curve"/>
      <point x="-161" y="83"/>
      <point x="-235" y="41"/>
      <point x="-235" y="-43" type="curve"/>
      <point x="-235" y="-139"/>
      <point x="-149" y="-184"/>
      <point x="-43" y="-184" type="curve"/>
    </contour>
    <contour>
      <point x="-43" y="-122" type="line"/>
      <point x="-152" y="-122"/>
      <point x="-237" y="-176"/>
      <point x="-237" y="-277" type="curve"/>
      <point x="-237" y="-363"/>
      <point x="-183" y="-423"/>
      <point x="-99" y="-423" type="curve"/>
      <point x="-67" y="-423"/>
      <point x="-44" y="-412"/>
      <point x="-19" y="-393" type="curve"/>
      <point x="-45" y="-321" type="line"/>
      <point x="-63" y="-333"/>
      <point x="-78" y="-341"/>
      <point x="-100" y="-341" type="curve"/>
      <point x="-134" y="-341"/>
      <point x="-152" y="-313"/>
      <point x="-152" y="-277" type="curve"/>
      <point x="-153" y="-225"/>
      <point x="-103" y="-205"/>
      <point x="-43" y="-205" type="curve"/>
    </contour>
  </outline>
</glyph>
<glyph name="endash" format="1">
  <advance width="447"/>
  <outline>
    <contour>
      <point x="62" y="223" type="curve"/>
      <point x="170" y="223"/>
      <point x="278" y="223"/>
      <point x="385" y="223" type="curve"/>
      <point x="385" y="344"/>
      <point x="385" y="223"/>
      <point x="385" y="344" type="curve"/>
      <point x="278" y="344"/>
      <point x="170" y="344"/>
      <point x="62" y="344" type="curve"/>
      <point x="62" y="223"/>
      <point x="62" y="344"/>
    </contour>
  </outline>
</glyph>
<glyph name="indianrupee" format="1">
  <advance width="476"/>
  <outline>
    <contour>
      <point x="205" y="287" type="line"/>
      <point x="307" y="326"/>
      <point x="352" y="392"/>
      <point x="352" y="498" type="curve"/>
      <point x="352" y="578"/>
      <point x="314" y="634"/>
      <point x="256" y="689" type="curve"/>
      <point x="224" y="665"/>
      <point x="201" y="643"/>
      <point x="169" y="619" type="curve"/>
      <point x="204" y="579"/>
      <point x="221" y="539"/>
      <point x="221" y="486" type="curve"/>
      <point x="221" y="414"/>
      <point x="151" y="387"/>
      <point x="70" y="387" type="curve"/>
    </contour>
    <contour>
      <point x="70" y="387" type="line"/>
      <point x="70" y="184"/>
      <point x="90" y="-6"/>
      <point x="244" y="-6" type="curve"/>
      <point x="340" y="-6"/>
      <point x="407" y="45"/>
      <point x="429" y="126" type="curve"/>
      <point x="314" y="163" type="line"/>
      <point x="306" y="129"/>
      <point x="289" y="105"/>
      <point x="260" y="105" type="curve"/>
      <point x="208" y="105"/>
      <point x="205" y="200"/>
      <point x="205" y="287" type="curve"/>
    </contour>
    <component base="dvTopbar" xScale="0.755117995572" xOffset="57"/>
    <component base="dvTopbar" xScale="0.755117995572" xOffset="58" yOffset="-171"/>
  </outline>
</glyph>
<glyph name="litre" format="1">
  <advance width="333"/>
  <outline>
    <contour>
      <point x="167" y="110" type="curve"/>
      <point x="30" y="110"/>
      <point x="167" y="110"/>
      <point x="30" y="110" type="curve"/>
      <point x="30" y="0"/>
      <point x="30" y="110"/>
      <point x="30" y="0" type="curve"/>
      <point x="76" y="0"/>
      <point x="121" y="0"/>
      <point x="167" y="0" type="curve"/>
      <point x="167" y="111"/>
      <point x="167" y="-1"/>
    </contour>
    <contour>
      <point x="169" y="800" type="curve"/>
      <point x="123" y="800"/>
      <point x="77" y="800"/>
      <point x="32" y="800" type="curve"/>
      <point x="31" y="690"/>
      <point x="32" y="800"/>
      <point x="31" y="690" type="curve"/>
      <point x="169" y="689"/>
      <point x="31" y="690"/>
      <point x="169" y="689" type="curve"/>
      <point x="169" y="799"/>
      <point x="169" y="690"/>
    </contour>
    <contour>
      <point x="167" y="0" type="curve"/>
      <point x="213" y="0"/>
      <point x="259" y="0"/>
      <point x="305" y="0" type="curve"/>
      <point x="305" y="110"/>
      <point x="305" y="0"/>
      <point x="305" y="110" type="curve"/>
      <point x="167" y="110"/>
      <point x="305" y="110"/>
      <point x="167" y="110" type="curve"/>
      <point x="167" y="-1"/>
      <point x="167" y="111"/>
    </contour>
    <contour>
      <point x="238" y="0" type="curve"/>
      <point x="238" y="267"/>
      <point x="238" y="533"/>
      <point x="238" y="800" type="curve"/>
      <point x="95" y="800"/>
      <point x="238" y="800"/>
      <point x="95" y="800" type="curve"/>
      <point x="95" y="533"/>
      <point x="95" y="267"/>
      <point x="95" y="0" type="curve"/>
      <point x="238" y="0"/>
      <point x="95" y="0"/>
    </contour>
  </outline>
</glyph>
<glyph name="logo" format="1">
  <advance width="1584"/>
  <outline>
    <contour>
      <point x="32" y="666" type="curve"/>
      <point x="32" y="546"/>
      <point x="32" y="666"/>
      <point x="32" y="546" type="curve"/>
      <point x="143" y="546"/>
      <point x="32" y="546"/>
      <point x="143" y="546" type="curve"/>
      <point x="143" y="666"/>
      <point x="143" y="546"/>
      <point x="143" y="666" type="curve"/>
      <point x="32" y="666"/>
      <point x="143" y="666"/>
    </contour>
    <contour>
      <point x="385" y="666" type="curve"/>
      <point x="385" y="546"/>
      <point x="385" y="666"/>
      <point x="385" y="546" type="curve"/>
      <point x="497" y="546"/>
      <point x="385" y="546"/>
      <point x="497" y="546" type="curve"/>
      <point x="497" y="666"/>
      <point x="497" y="546"/>
      <point x="497" y="666" type="curve"/>
      <point x="385" y="666"/>
      <point x="497" y="666"/>
    </contour>
    <contour>
      <point x="263" y="0" type="curve"/>
      <point x="309" y="0"/>
      <point x="355" y="0"/>
      <point x="401" y="0" type="curve"/>
      <point x="401" y="110"/>
      <point x="401" y="0"/>
      <point x="401" y="110" type="curve"/>
      <point x="263" y="110"/>
      <point x="401" y="110"/>
      <point x="263" y="110" type="curve"/>
      <point x="263" y="0"/>
      <point x="263" y="110"/>
    </contour>
    <contour>
      <point x="263" y="110" type="curve"/>
      <point x="126" y="110"/>
      <point x="263" y="110"/>
      <point x="126" y="110" type="curve"/>
      <point x="126" y="0"/>
      <point x="126" y="110"/>
      <point x="126" y="0" type="curve"/>
      <point x="172" y="0"/>
      <point x="218" y="0"/>
      <point x="263" y="0" type="curve"/>
      <point x="263" y="110"/>
      <point x="263" y="0"/>
    </contour>
    <contour>
      <point x="336" y="0" type="curve"/>
      <point x="336" y="237"/>
      <point x="336" y="473"/>
      <point x="336" y="710" type="curve"/>
      <point x="193" y="710"/>
      <point x="336" y="710"/>
      <point x="193" y="710" type="curve"/>
      <point x="192" y="473"/>
      <point x="193" y="237"/>
      <point x="193" y="0" type="curve"/>
      <point x="336" y="0"/>
      <point x="193" y="0"/>
    </contour>
    <contour>
      <point x="32" y="605" type="curve"/>
      <point x="186" y="605"/>
      <point x="342" y="605"/>
      <point x="497" y="605" type="curve"/>
      <point x="497" y="727"/>
      <point x="497" y="600"/>
      <point x="497" y="722" type="curve"/>
      <point x="342" y="722"/>
      <point x="186" y="722"/>
      <point x="32" y="722" type="curve"/>
      <point x="32" y="600"/>
      <point x="32" y="727"/>
    </contour>
    <contour>
      <point x="664" y="110" type="curve"/>
      <point x="527" y="110"/>
      <point x="664" y="110"/>
      <point x="527" y="110" type="curve"/>
      <point x="527" y="0"/>
      <point x="527" y="110"/>
      <point x="527" y="0" type="curve"/>
      <point x="573" y="0"/>
      <point x="619" y="0"/>
      <point x="664" y="0" type="curve"/>
      <point x="664" y="110"/>
      <point x="664" y="0"/>
    </contour>
    <contour>
      <point x="664" y="722" type="curve"/>
      <point x="619" y="722"/>
      <point x="573" y="722"/>
      <point x="527" y="722" type="curve"/>
      <point x="527" y="612"/>
      <point x="527" y="722"/>
      <point x="527" y="612" type="curve"/>
      <point x="664" y="612"/>
      <point x="527" y="612"/>
      <point x="664" y="612" type="curve"/>
      <point x="664" y="722"/>
      <point x="664" y="612"/>
    </contour>
    <contour>
      <point x="591" y="722" type="curve"/>
      <point x="591" y="481"/>
      <point x="591" y="241"/>
      <point x="591" y="0" type="curve"/>
      <point x="734" y="0"/>
      <point x="591" y="0"/>
      <point x="734" y="0" type="curve"/>
      <point x="734" y="241"/>
      <point x="734" y="481"/>
      <point x="734" y="722" type="curve"/>
      <point x="591" y="722"/>
      <point x="734" y="722"/>
    </contour>
    <contour>
      <point x="664" y="0" type="curve"/>
      <point x="712" y="0"/>
      <point x="760" y="0"/>
      <point x="809" y="0" type="curve"/>
      <point x="1018" y="0"/>
      <point x="1113" y="134"/>
      <point x="1113" y="354" type="curve"/>
      <point x="1113" y="581"/>
      <point x="1021" y="722"/>
      <point x="807" y="722" type="curve"/>
      <point x="760" y="722"/>
      <point x="712" y="722"/>
      <point x="664" y="722" type="curve"/>
      <point x="664" y="612"/>
      <point x="664" y="722"/>
      <point x="664" y="612" type="curve"/>
      <point x="710" y="612"/>
      <point x="755" y="612"/>
      <point x="801" y="612" type="curve"/>
      <point x="937" y="612"/>
      <point x="970" y="504"/>
      <point x="970" y="352" type="curve"/>
      <point x="970" y="212"/>
      <point x="943" y="110"/>
      <point x="822" y="110" type="curve"/>
      <point x="769" y="110"/>
      <point x="717" y="110"/>
      <point x="664" y="110" type="curve"/>
      <point x="664" y="0"/>
      <point x="664" y="110"/>
    </contour>
    <contour>
      <point x="1407" y="661" type="curve"/>
      <point x="1407" y="541"/>
      <point x="1407" y="638"/>
      <point x="1407" y="518" type="curve"/>
      <point x="1519" y="518"/>
      <point x="1407" y="518"/>
      <point x="1519" y="518" type="curve"/>
      <point x="1519" y="638"/>
      <point x="1519" y="541"/>
      <point x="1519" y="661" type="curve"/>
      <point x="1407" y="661"/>
      <point x="1519" y="661"/>
    </contour>
    <contour>
      <point x="1264" y="53" type="curve"/>
      <point x="1264" y="173"/>
      <point x="1264" y="87"/>
      <point x="1264" y="207" type="curve"/>
      <point x="1152" y="207"/>
      <point x="1264" y="207"/>
      <point x="1152" y="207" type="curve"/>
      <point x="1152" y="87"/>
      <point x="1152" y="173"/>
      <point x="1152" y="53" type="curve"/>
      <point x="1264" y="53"/>
      <point x="1152" y="53"/>
    </contour>
    <contour>
      <point x="1152" y="53" type="curve"/>
      <point x="1209" y="11"/>
      <point x="1262" y="-5"/>
      <point x="1334" y="-5" type="curve"/>
      <point x="1466" y="-5"/>
      <point x="1566" y="66"/>
      <point x="1566" y="194" type="curve"/>
      <point x="1566" y="304"/>
      <point x="1491" y="364"/>
      <point x="1393" y="419" type="curve" smooth="yes"/>
      <point x="1336" y="451"/>
      <point x="1285" y="492"/>
      <point x="1285" y="539" type="curve"/>
      <point x="1282" y="578"/>
      <point x="1308" y="612"/>
      <point x="1346" y="612" type="curve"/>
      <point x="1390" y="612"/>
      <point x="1425" y="589"/>
      <point x="1454" y="573" type="curve"/>
      <point x="1519" y="661"/>
      <point x="1454" y="573"/>
      <point x="1519" y="661" type="curve"/>
      <point x="1465" y="700"/>
      <point x="1416" y="717"/>
      <point x="1349" y="717" type="curve"/>
      <point x="1228" y="717"/>
      <point x="1142" y="649"/>
      <point x="1142" y="534" type="curve"/>
      <point x="1142" y="428"/>
      <point x="1212" y="365"/>
      <point x="1304" y="314" type="curve" smooth="yes"/>
      <point x="1365" y="280"/>
      <point x="1423" y="240"/>
      <point x="1423" y="194" type="curve"/>
      <point x="1423" y="156"/>
      <point x="1390" y="111"/>
      <point x="1341" y="111" type="curve"/>
      <point x="1296" y="111"/>
      <point x="1267" y="132"/>
      <point x="1230" y="158" type="curve"/>
      <point x="1152" y="53"/>
      <point x="1230" y="158"/>
    </contour>
  </outline>
</glyph>
<glyph name="mumath" format="1">
  <advance width="627"/>
  <outline>
    <contour>
      <point x="248" y="-300" type="curve"/>
      <point x="248" y="67"/>
      <point x="248" y="166"/>
      <point x="248" y="533" type="curve"/>
      <point x="105" y="533"/>
      <point x="248" y="533"/>
      <point x="105" y="533" type="curve"/>
      <point x="105" y="166"/>
      <point x="105" y="67"/>
      <point x="105" y="-300" type="curve"/>
      <point x="248" y="-300"/>
      <point x="105" y="-300"/>
    </contour>
    <contour>
      <point x="451" y="534" type="curve"/>
      <point x="405" y="534"/>
      <point x="359" y="534"/>
      <point x="313" y="534" type="curve"/>
      <point x="313" y="424"/>
      <point x="313" y="534"/>
      <point x="313" y="424" type="curve"/>
      <point x="451" y="424"/>
      <point x="313" y="424"/>
      <point x="451" y="424" type="curve"/>
      <point x="451" y="534"/>
      <point x="451" y="424"/>
    </contour>
    <contour>
      <point x="177" y="534" type="curve"/>
      <point x="131" y="534"/>
      <point x="84" y="534"/>
      <point x="39" y="534" type="curve"/>
      <point x="39" y="424"/>
      <point x="39" y="534"/>
      <point x="39" y="424" type="curve"/>
      <point x="177" y="424"/>
      <point x="39" y="424"/>
      <point x="177" y="424" type="curve"/>
      <point x="177" y="534"/>
      <point x="177" y="424"/>
    </contour>
    <contour>
      <point x="451" y="1" type="curve"/>
      <point x="494" y="1"/>
      <point x="537" y="1"/>
      <point x="580" y="1" type="curve"/>
      <point x="580" y="111"/>
      <point x="580" y="1"/>
      <point x="580" y="111" type="curve"/>
      <point x="451" y="111"/>
      <point x="580" y="111"/>
      <point x="451" y="111" type="curve"/>
      <point x="451" y="1"/>
      <point x="451" y="111"/>
    </contour>
    <contour>
      <point x="522" y="1" type="curve"/>
      <point x="522" y="179"/>
      <point x="522" y="356"/>
      <point x="522" y="534" type="curve"/>
      <point x="379" y="534"/>
      <point x="522" y="534"/>
      <point x="379" y="534" type="curve"/>
      <point x="379" y="356"/>
      <point x="379" y="179"/>
      <point x="379" y="1" type="curve"/>
      <point x="522" y="1"/>
      <point x="379" y="1"/>
    </contour>
    <contour>
      <point x="407" y="229" type="curve"/>
      <point x="385" y="179"/>
      <point x="360" y="112"/>
      <point x="307" y="112" type="curve"/>
      <point x="254" y="112"/>
      <point x="248" y="160"/>
      <point x="248" y="220" type="curve"/>
      <point x="248" y="325"/>
      <point x="248" y="429"/>
      <point x="248" y="534" type="curve"/>
      <point x="105" y="534"/>
      <point x="248" y="534"/>
      <point x="105" y="534" type="curve"/>
      <point x="105" y="427"/>
      <point x="105" y="321"/>
      <point x="105" y="215" type="curve"/>
      <point x="105" y="84"/>
      <point x="151" y="-4"/>
      <point x="285" y="-4" type="curve"/>
      <point x="373" y="-4"/>
      <point x="425" y="81"/>
      <point x="457" y="182" type="curve"/>
      <point x="406" y="228"/>
      <point x="458" y="183"/>
    </contour>
  </outline>
</glyph>
<glyph name="oe" format="1">
  <advance width="824"/>
  <outline>
    <contour>
      <point x="170" y="265" type="line"/>
      <point x="170" y="345"/>
      <point x="188" y="423"/>
      <point x="264" y="423" type="curve"/>
      <point x="340" y="423"/>
      <point x="360" y="347"/>
      <point x="360" y="265" type="curve"/>
      <point x="360" y="180"/>
      <point x="344" y="110"/>
      <point x="273" y="110" type="curve"/>
      <point x="188" y="111"/>
      <point x="170" y="179"/>
      <point x="170" y="265" type="curve"/>
      <point x="37" y="265" type="line"/>
      <point x="37" y="105"/>
      <point x="115" y="-5"/>
      <point x="267" y="-5" type="curve"/>
      <point x="421" y="-5"/>
      <point x="503" y="103"/>
      <point x="503" y="265" type="curve"/>
      <point x="503" y="427"/>
      <point x="424" y="538"/>
      <point x="271" y="538" type="curve"/>
      <point x="116" y="538"/>
      <point x="37" y="427"/>
      <point x="37" y="265" type="curve"/>
    </contour>
    <contour>
      <point x="436" y="226" type="curve"/>
      <point x="534" y="226"/>
      <point x="632" y="226"/>
      <point x="730" y="226" type="curve"/>
      <point x="791" y="226"/>
      <point x="730" y="226"/>
      <point x="791" y="226" type="curve"/>
      <point x="791" y="274"/>
      <point x="791" y="226"/>
      <point x="791" y="274" type="curve"/>
      <point x="791" y="280"/>
      <point x="791" y="286"/>
      <point x="791" y="292" type="curve"/>
      <point x="791" y="442"/>
      <point x="724" y="538"/>
      <point x="586" y="538" type="curve"/>
      <point x="438" y="538"/>
      <point x="364" y="438"/>
      <point x="364" y="278" type="curve"/>
      <point x="364" y="106"/>
      <point x="443" y="-5"/>
      <point x="602" y="-5" type="curve"/>
      <point x="672" y="-5"/>
      <point x="716" y="22"/>
      <point x="769" y="73" type="curve"/>
      <point x="683" y="151"/>
      <point x="769" y="73"/>
      <point x="683" y="151" type="curve"/>
      <point x="659" y="125"/>
      <point x="637" y="111"/>
      <point x="602" y="111" type="curve"/>
      <point x="519" y="111"/>
      <point x="505" y="184"/>
      <point x="505" y="278" type="curve"/>
      <point x="505" y="358"/>
      <point x="510" y="423"/>
      <point x="580" y="423" type="curve"/>
      <point x="639" y="423"/>
      <point x="655" y="372"/>
      <point x="655" y="303" type="curve"/>
      <point x="655" y="293"/>
      <point x="655" y="284"/>
      <point x="655" y="274" type="curve"/>
      <point x="667" y="286"/>
      <point x="679" y="296"/>
      <point x="691" y="308" type="curve"/>
      <point x="702" y="319"/>
      <point x="719" y="318"/>
      <point x="730" y="330" type="curve"/>
      <point x="632" y="330"/>
      <point x="534" y="330"/>
      <point x="436" y="330" type="curve"/>
      <point x="436" y="220"/>
      <point x="436" y="336"/>
    </contour>
  </outline>
</glyph>
<glyph name="tcedilla" format="1">
  <advance width="330"/>
  <outline>
    <contour>
      <point x="12" y="421" type="curve"/>
      <point x="306" y="421" type="line"/>
      <point x="306" y="532"/>
      <point x="306" y="421"/>
      <point x="306" y="532" type="curve"/>
      <point x="12" y="532" type="line"/>
      <point x="12" y="421"/>
      <point x="12" y="532"/>
    </contour>
    <contour>
      <point x="262" y="125" type="curve"/>
      <point x="250" y="115"/>
      <point x="242" y="110"/>
      <point x="228" y="110" type="curve"/>
      <point x="197" y="110"/>
      <point x="199" y="140"/>
      <point x="199" y="175" type="curve"/>
      <point x="199" y="680" type="line"/>
      <point x="56" y="590"/>
      <point x="199" y="680"/>
      <point x="56" y="590" type="curve"/>
      <point x="56" y="170" type="line"/>
      <point x="56" y="60"/>
      <point x="106" y="-6"/>
      <point x="207" y="-6" type="curve"/>
      <point x="251" y="-6"/>
      <point x="281" y="8"/>
      <point x="320" y="31" type="curve"/>
      <point x="262" y="125"/>
      <point x="320" y="31"/>
    </contour>
    <contour>
      <point x="136" y="98" type="curve"/>
      <point x="126" y="77"/>
      <point x="86" y="-19"/>
      <point x="76" y="-41" type="curve"/>
      <point x="174" y="-129"/>
      <point x="76" y="-41"/>
      <point x="174" y="-129" type="curve"/>
      <point x="186" y="-103"/>
      <point x="234" y="-5"/>
      <point x="246" y="21" type="curve"/>
      <point x="136" y="98"/>
      <point x="246" y="21"/>
    </contour>
    <contour>
      <point x="174" y="-129" type="curve"/>
      <point x="179" y="-125"/>
      <point x="183" y="-121"/>
      <point x="189" y="-121" type="curve"/>
      <point x="196" y="-121"/>
      <point x="201" y="-124"/>
      <point x="201" y="-133" type="curve"/>
      <point x="201" y="-146"/>
      <point x="188" y="-150"/>
      <point x="173" y="-150" type="curve"/>
      <point x="155" y="-150"/>
      <point x="140" y="-146"/>
      <point x="124" y="-136" type="curve"/>
      <point x="70" y="-216"/>
      <point x="124" y="-136"/>
      <point x="70" y="-216" type="curve"/>
      <point x="100" y="-236"/>
      <point x="129" y="-244"/>
      <point x="166" y="-244" type="curve"/>
      <point x="237" y="-244"/>
      <point x="286" y="-205"/>
      <point x="286" y="-131" type="curve"/>
      <point x="286" y="-61"/>
      <point x="242" y="-17"/>
      <point x="173" y="-17" type="curve"/>
      <point x="136" y="-17"/>
      <point x="109" y="-22"/>
      <point x="76" y="-41" type="curve"/>
      <point x="174" y="-129"/>
      <point x="76" y="-41"/>
    </contour>
  </outline>
</glyph>
<glyph name="turkishlira" format="1">
  <advance width="672"/>
  <outline>
    <contour>
      <point x="190" y="110" type="curve"/>
      <point x="53" y="110"/>
      <point x="190" y="110"/>
      <point x="53" y="110" type="curve"/>
      <point x="53" y="0"/>
      <point x="53" y="110"/>
      <point x="53" y="0" type="curve"/>
      <point x="99" y="0"/>
      <point x="145" y="0"/>
      <point x="190" y="0" type="curve"/>
      <point x="190" y="110"/>
      <point x="190" y="0"/>
    </contour>
    <contour>
      <point x="496" y="354" type="line"/>
      <point x="496" y="216"/>
      <point x="469" y="110"/>
      <point x="348" y="110" type="curve"/>
      <point x="295" y="110"/>
      <point x="243" y="110"/>
      <point x="190" y="110" type="curve"/>
      <point x="190" y="0"/>
      <point x="190" y="110"/>
      <point x="190" y="0" type="curve"/>
      <point x="238" y="0"/>
      <point x="286" y="0"/>
      <point x="335" y="0" type="curve"/>
      <point x="544" y="0"/>
      <point x="639" y="134"/>
      <point x="639" y="354" type="curve"/>
    </contour>
    <contour>
      <point x="117" y="722" type="curve"/>
      <point x="117" y="481"/>
      <point x="117" y="241"/>
      <point x="117" y="0" type="curve"/>
      <point x="260" y="0"/>
      <point x="117" y="0"/>
      <point x="260" y="0" type="curve"/>
      <point x="260" y="241"/>
      <point x="260" y="481"/>
      <point x="260" y="722" type="curve"/>
      <point x="117" y="722"/>
      <point x="260" y="722"/>
    </contour>
    <contour>
      <point x="69" y="262" type="curve"/>
      <point x="188" y="262"/>
      <point x="308" y="262"/>
      <point x="428" y="262" type="curve"/>
      <point x="428" y="379"/>
      <point x="428" y="262"/>
      <point x="428" y="379" type="curve"/>
      <point x="308" y="379"/>
      <point x="188" y="379"/>
      <point x="69" y="379" type="curve"/>
      <point x="69" y="262"/>
      <point x="69" y="379"/>
    </contour>
    <contour>
      <point x="69" y="434" type="curve"/>
      <point x="188" y="434"/>
      <point x="308" y="434"/>
      <point x="428" y="434" type="curve"/>
      <point x="428" y="551"/>
      <point x="428" y="434"/>
      <point x="428" y="551" type="curve"/>
      <point x="308" y="551"/>
      <point x="188" y="551"/>
      <point x="69" y="551" type="curve"/>
      <point x="69" y="434"/>
      <point x="69" y="551"/>
    </contour>
    <contour>
      <point x="190" y="722" type="curve"/>
      <point x="145" y="722"/>
      <point x="99" y="722"/>
      <point x="53" y="722" type="curve"/>
      <point x="53" y="612"/>
      <point x="53" y="722"/>
      <point x="53" y="612" type="curve"/>
      <point x="190" y="612"/>
      <point x="53" y="612"/>
      <point x="190" y="612" type="curve"/>
      <point x="190" y="722"/>
      <point x="190" y="612"/>
    </contour>
    <contour>
      <point x="330" y="722" type="curve"/>
      <point x="285" y="722"/>
      <point x="239" y="722"/>
      <point x="193" y="722" type="curve"/>
      <point x="193" y="612"/>
      <point x="193" y="722"/>
      <point x="193" y="612" type="curve"/>
      <point x="330" y="612"/>
      <point x="193" y="612"/>
      <point x="330" y="612" type="curve"/>
      <point x="330" y="722"/>
      <point x="330" y="612"/>
    </contour>
  </outline>
</glyph>
<glyph name="twosuperior" format="1">
  <advance width="404"/>
  <outline>
    <contour>
      <point x="214" y="832" type="move" name="_top"/>
    </contour>
    <contour>
      <point x="201" y="400" type="move" name="_bottom"/>
    </contour>
    <contour>
      <point x="360" y="400" type="curve"/>
      <point x="360" y="446"/>
      <point x="360" y="493"/>
      <point x="360" y="540" type="curve"/>
      <point x="256" y="540"/>
      <point x="380" y="540"/>
      <point x="276" y="540" type="curve"/>
      <point x="276" y="523"/>
      <point x="276" y="505"/>
      <point x="276" y="488" type="curve"/>
      <point x="380" y="400"/>
      <point x="256" y="488"/>
    </contour>
    <contour>
      <point x="57" y="400" type="curve"/>
      <point x="154" y="400"/>
      <point x="276" y="400"/>
      <point x="360" y="400" type="curve"/>
      <point x="256" y="488"/>
      <point x="380" y="400"/>
      <point x="276" y="488" type="curve"/>
      <point x="210" y="488"/>
      <point x="123" y="488"/>
      <point x="57" y="488" type="curve"/>
      <point x="57" y="400"/>
      <point x="57" y="488"/>
    </contour>
    <contour>
      <point x="156" y="691" type="curve"/>
      <point x="163" y="718"/>
      <point x="174" y="743"/>
      <point x="202" y="743" type="curve"/>
      <point x="228" y="743"/>
      <point x="238" y="720"/>
      <point x="238" y="690" type="curve"/>
      <point x="238" y="657"/>
      <point x="218" y="639"/>
      <point x="195" y="615" type="curve"/>
      <point x="149" y="573"/>
      <point x="103" y="530"/>
      <point x="57" y="488" type="curve"/>
      <point x="57" y="400"/>
      <point x="57" y="488"/>
      <point x="57" y="400" type="curve"/>
      <point x="123" y="448"/>
      <point x="215" y="496"/>
      <point x="268" y="545" type="curve"/>
      <point x="313" y="592"/>
      <point x="347" y="629"/>
      <point x="347" y="695" type="curve"/>
      <point x="347" y="779"/>
      <point x="292" y="831"/>
      <point x="207" y="831" type="curve"/>
      <point x="141" y="831"/>
      <point x="93" y="806"/>
      <point x="74" y="721" type="curve"/>
      <point x="156" y="691"/>
      <point x="74" y="721"/>
    </contour>
  </outline>
</glyph>
